<?xml version="1.0" standalone="no"?>
<!DOCTYPE svg PUBLIC "-//W3C//DTD SVG 1.1//EN" "http://www.w3.org/Graphics/SVG/1.1/DTD/svg11.dtd" >
<svg>
<metadata>
Created by FontForge 20120731 at Tue May 29 01:25:29 2018
 By www
Copyright (c) 2010 by The Indian Type Foundry. All rights reserved.
</metadata>
<defs>
<font id="KohinoorW00-Demi" horiz-adv-x="537" >
  <font-face 
    font-family="KohinoorW00-Demi"
    font-weight="450"
    font-stretch="normal"
    units-per-em="1000"
    panose-1="2 0 0 0 0 0 0 0 0 0"
    ascent="800"
    descent="-200"
    x-height="550"
    cap-height="701"
    bbox="-167 -330 1178 981"
    underline-thickness="50"
    underline-position="-75"
    unicode-range="U+0020-FB04"
  />
<missing-glyph horiz-adv-x="514" 
d="M2 0v701h505v-701h-505zM55 651v-601h400v601h-400zM255 302h-4l-100 -209h-60l134 260l-134 255h60l105 -206h4l100 206h60l-135 -261l135 -254h-60z" />
    <glyph glyph-name="uni20A8" unicode="Rs&#x2e;" 
d="M512 531v-76h-136q-3 -48 -24 -88t-66.5 -68t-111.5 -29h-6v-4q57 -35 118 -120l106 -146h-120l-92 129q-23 33 -47.5 60t-47 42.5t-50.5 29.5v82q35 -9 76 -9q71 0 115.5 31t50.5 94q-52 -4 -189 -4h-54v76h55q35 0 73.5 -0.5t111.5 -2.5q-14 42 -50.5 63.5t-98.5 21.5
h-91v75h478v-75h-198v-4q17 -12 32.5 -33t22.5 -45h143z" />
    <glyph glyph-name="uniFB00" unicode="ff" horiz-adv-x="703" 
d="M704 761l-17 -82q-35 10 -71 10q-35 0 -51 -17.5t-16 -52.5v-69h135v-73h-137v-477h-99v477h-236v-477h-99v477h-88v73h90v70q0 68 43 110t126 42q47 0 85 -11l-17 -82q-35 10 -71 10q-35 0 -51 -17.5t-16 -52.5v-69h236v70q0 68 43 110t126 42q47 0 85 -11z" />
    <glyph glyph-name="uniFB01" unicode="fi" horiz-adv-x="630" 
d="M369 761l-17 -82q-35 10 -71 10q-35 0 -51 -17.5t-16 -52.5v-69h135v-73h-137v-477h-99v477h-88v73h90v70q0 68 43 110t126 42q47 0 85 -11zM437 0v550h99v-550h-99zM418 705q0 28 19 47.5t46 19.5q28 0 47 -19t19 -48q0 -27 -19 -45.5t-47 -18.5q-27 0 -46 19t-19 45z
" />
    <glyph glyph-name="uniFB02" unicode="fl" horiz-adv-x="660" 
d="M369 761l-17 -82q-35 10 -71 10q-35 0 -51 -17.5t-16 -52.5v-69h135v-73h-137v-477h-99v477h-88v73h90v70q0 68 43 110t126 42q47 0 85 -11zM447 759h98v-616q0 -34 13 -49.5t41 -15.5q15 0 39 8v-81q-32 -13 -70 -13q-58 0 -89.5 33.5t-31.5 91.5v642z" />
    <glyph glyph-name="uniFB03" unicode="ffi" horiz-adv-x="965" 
d="M704 761l-17 -82q-35 10 -71 10q-35 0 -51 -17.5t-16 -52.5v-69h135v-73h-137v-477h-99v477h-236v-477h-99v477h-88v73h90v70q0 68 43 110t126 42q47 0 85 -11l-17 -82q-35 10 -71 10q-35 0 -51 -17.5t-16 -52.5v-69h236v70q0 68 43 110t126 42q47 0 85 -11zM772 0v550
h99v-550h-99zM753 705q0 28 19 47.5t46 19.5q28 0 47 -19t19 -48q0 -27 -19 -45.5t-47 -18.5q-27 0 -46 19t-19 45z" />
    <glyph glyph-name="uniFB04" unicode="ffl" horiz-adv-x="995" 
d="M704 761l-17 -82q-35 10 -71 10q-35 0 -51 -17.5t-16 -52.5v-69h135v-73h-137v-477h-99v477h-236v-477h-99v477h-88v73h90v70q0 68 43 110t126 42q47 0 85 -11l-17 -82q-35 10 -71 10q-35 0 -51 -17.5t-16 -52.5v-69h236v70q0 68 43 110t126 42q47 0 85 -11zM782 759h98
v-616q0 -34 13 -49.5t41 -15.5q15 0 39 8v-81q-32 -13 -70 -13q-58 0 -89.5 33.5t-31.5 91.5v642z" />
    <glyph glyph-name=".notdef" horiz-adv-x="514" 
d="M2 0v701h505v-701h-505zM55 651v-601h400v601h-400zM255 302h-4l-100 -209h-60l134 260l-134 255h60l105 -206h4l100 206h60l-135 -261l135 -254h-60z" />
    <glyph glyph-name="glyph1" horiz-adv-x="0" 
 />
    <glyph glyph-name="glyph2" horiz-adv-x="0" 
 />
    <glyph glyph-name="space" unicode=" " horiz-adv-x="262" 
 />
    <glyph glyph-name="exclam" unicode="!" horiz-adv-x="292" 
d="M184 256h-79q-1 22 -3.5 80t-10.5 208t-9 172h125zM77 66q0 29 20 50t48 21q29 0 49.5 -20.5t20.5 -50.5q0 -28 -20.5 -48t-49.5 -20q-28 0 -48 20.5t-20 47.5z" />
    <glyph glyph-name="quotedbl" unicode="&#x22;" horiz-adv-x="351" 
d="M131 486h-71l-18 232h107zM292 486h-72l-18 232h107z" />
    <glyph glyph-name="numbersign" unicode="#" horiz-adv-x="681" 
d="M44 273h117l27 154h-115l6 77h120l31 190h87l-31 -190h175l31 190h87l-31 -190h96l-7 -77h-102l-25 -154h98l-6 -77h-103l-32 -196h-87l32 196h-175l-31 -196h-87l32 196h-114zM274 427l-26 -154h176l25 154h-175z" />
    <glyph glyph-name="dollar" unicode="$" horiz-adv-x="538" 
d="M311 -134h-87l2 137q-116 8 -197 75l59 79q21 -19 52 -36t64 -24.5t60 -7.5q64 0 95.5 26.5t31.5 68.5q0 30 -21 55.5t-99 60.5l-61 27q-70 31 -107.5 74.5t-37.5 107.5q0 73 49.5 121.5t125.5 60.5l-2 135h87l-3 -133q94 -9 154 -62l-62 -74q-22 22 -58.5 36t-74.5 14
q-25 0 -52.5 -8t-45 -30t-17.5 -53q0 -29 21 -56.5t92 -59.5l54 -25q92 -43 125.5 -83t33.5 -99q0 -41 -20 -82.5t-63.5 -69t-99.5 -36.5z" />
    <glyph glyph-name="percent" unicode="%" horiz-adv-x="844" 
d="M797 184q0 -95 -43 -144.5t-115 -49.5q-73 0 -114 47.5t-41 143.5q0 92 43.5 141t115.5 49t113 -47t41 -140zM642 55q38 0 57 30.5t19 94.5q0 127 -80 127q-74 0 -74 -125q0 -64 20.5 -95.5t57.5 -31.5zM195 23l521 609l-53 46l-520 -609zM360 516q0 -95 -43 -144.5
t-115 -49.5q-73 0 -114 47.5t-41 143.5q0 92 43.5 141t115.5 49t113 -47t41 -140zM205 387q38 0 57 30.5t19 94.5q0 127 -80 127q-74 0 -74 -125q0 -64 20.5 -95.5t57.5 -31.5z" />
    <glyph glyph-name="ampersand" unicode="&#x26;" horiz-adv-x="692" 
d="M34 181q0 136 166 194q-63 70 -63 150q0 44 22.5 85t66.5 63.5t95 22.5q30 0 61 -8.5t57 -29.5t43 -54t17 -77q0 -63 -38.5 -112.5t-120.5 -74.5q62 -68 162 -156q23 35 35 84t12 97h88q-1 -59 -19.5 -123t-51.5 -111q35 -31 145 -117v-14h-122q-41 30 -82 65
q-87 -81 -233 -81q-45 0 -89 11.5t-77.5 37.5t-53.5 64t-20 84zM284 64q100 0 159 56q-130 120 -193 190q-121 -33 -121 -122q0 -23 13 -52t50 -50.5t92 -21.5zM227 525q0 -28 15 -62t44 -62q44 13 70.5 29.5t40 39.5t13.5 55q0 39 -25 65t-66 26q-40 0 -66 -24.5t-26 -66.5
z" />
    <glyph glyph-name="quotesingle" unicode="'" horiz-adv-x="191" 
d="M131 486h-71l-18 232h107z" />
    <glyph glyph-name="parenleft" unicode="(" horiz-adv-x="337" 
d="M81 294q0 50 10 124t43.5 160.5t78 149.5t75.5 89h99v-9q-43 -41 -82 -94.5t-69.5 -119t-48.5 -142.5t-18 -158q0 -101 27 -194t75.5 -174.5t115.5 -144.5v-10h-98q-23 20 -57 64t-68.5 111t-58.5 157.5t-24 190.5z" />
    <glyph glyph-name="parenright" unicode=")" horiz-adv-x="337" 
d="M256 294q0 -76 -16.5 -158t-49.5 -155t-72 -128t-70 -82h-98v10q67 63 115.5 144.5t75.5 174.5t27 194q0 61 -10.5 121t-32 121.5t-65 134.5t-110.5 137v9h99q31 -26 70 -81t71.5 -128t49 -155.5t16.5 -158.5z" />
    <glyph glyph-name="asterisk" unicode="*" horiz-adv-x="409" 
d="M245 638l-10 -77l70 34l55 18l24 -77l-54 -18l-77 -14l54 -57l34 -46l-65 -47l-35 46l-36 67l-37 -67l-34 -47l-65 48l33 47l53 55l-76 15l-54 18l24 76l55 -17l69 -33l-9 76v58h81v-58z" />
    <glyph glyph-name="plus" unicode="+" 
d="M31 301v83h194v196h85v-196h195v-83h-195v-196h-85v196h-194z" />
    <glyph glyph-name="comma" unicode="," horiz-adv-x="257" 
d="M68 -152l-32 49q38 16 60.5 39.5t22.5 50.5q0 19 -11.5 37t-48.5 35v9q0 28 19.5 48t49.5 20q36 0 59 -27t23 -71q0 -65 -43.5 -118t-98.5 -72z" />
    <glyph glyph-name="hyphen" unicode="-" horiz-adv-x="351" 
d="M327 262h-302v85h302v-85z" />
    <glyph glyph-name="period" unicode="." horiz-adv-x="244" 
d="M50 68q0 31 20.5 52.5t50.5 21.5q31 0 52 -21.5t21 -52.5q0 -29 -21 -50t-52 -21q-29 0 -50 21t-21 50z" />
    <glyph glyph-name="slash" unicode="/" horiz-adv-x="356" 
d="M-3 -142l275 872h87l-275 -872h-87z" />
    <glyph glyph-name="zero" unicode="0" horiz-adv-x="579" 
d="M285 -10q-120 0 -175 85.5t-55 264.5q0 182 59.5 270.5t178.5 88.5q120 0 175.5 -85.5t55.5 -266.5q0 -357 -239 -357zM156 347q0 -137 32 -203t103 -66q73 0 102.5 62t29.5 200q0 137 -32.5 204.5t-104.5 67.5t-101 -63t-29 -202z" />
    <glyph glyph-name="one" unicode="1" horiz-adv-x="444" 
d="M220 689h104v-689h-99v389l4 191h-4l-72 -49l-81 -57l-58 80z" />
    <glyph glyph-name="two" unicode="2" horiz-adv-x="509" 
d="M156 88v-4q27 3 129 3h175v-87h-408l-16 87q33 31 129 137.5t113 129.5q34 41 49.5 77.5t15.5 76.5q0 47 -27 74t-71 27q-38 0 -64.5 -24.5t-32.5 -72.5l-102 22q6 33 22 62.5t41.5 52t61.5 35.5t80 13q90 0 143 -49t53 -129q0 -112 -95 -222q-1 -1 -4.5 -5.5t-39.5 -46
t-54 -58.5l-4 -4t-43.5 -44.5t-50.5 -50.5z" />
    <glyph glyph-name="three" unicode="3" horiz-adv-x="517" 
d="M336 356v-4q23 -3 52.5 -15.5t51 -46.5t21.5 -89q0 -100 -60.5 -155t-168.5 -55q-75 0 -128.5 33.5t-76.5 82.5l90 49q13 -23 33 -42.5t45 -28t48 -8.5q120 0 120 118q0 58 -35.5 83.5t-109.5 25.5h-45v85h44q64 0 93.5 29t29.5 90q0 34 -14.5 59.5t-38.5 35t-48 9.5
q-22 0 -44 -8.5t-37 -30t-20 -49.5l-97 15q4 24 15.5 51t34.5 50.5t60.5 40.5t89.5 17q95 0 147.5 -46.5t52.5 -135.5q0 -31 -10.5 -65.5t-36.5 -60t-58 -34.5z" />
    <glyph glyph-name="four" unicode="4" horiz-adv-x="542" 
d="M329 162h-283l-23 83l281 444h122v-442h97v-85h-97v-162h-97v162zM335 587h-4q-16 -33 -74 -128l-131 -212h203v168q0 122 6 172z" />
    <glyph glyph-name="five" unicode="5" horiz-adv-x="543" 
d="M263 -9q-152 0 -211 126l98 45q35 -85 122 -85q58 0 87.5 36.5t29.5 102.5q0 65 -30.5 97.5t-88.5 32.5q-22 0 -47 -8.5t-44 -29.5l-97 33l30 348h345v-86h-257l-19 -207l4 -1q19 15 49 24t58 9q97 0 147.5 -51.5t50.5 -150.5q0 -108 -61 -171.5t-166 -63.5z" />
    <glyph glyph-name="six" unicode="6" horiz-adv-x="546" 
d="M196 428l2 -2q18 11 47 16.5t54 5.5q44 0 80.5 -13t63 -40t40.5 -68t14 -94q0 -111 -61.5 -177t-161.5 -66q-214 0 -214 260q0 90 29.5 172t82.5 152t123 115h135v-12q-168 -97 -234 -249zM273 363q-56 0 -106 -26q-8 -32 -8 -85q0 -59 14.5 -98t41.5 -59t68 -20
q114 0 114 145q0 143 -124 143z" />
    <glyph glyph-name="seven" unicode="7" horiz-adv-x="461" 
d="M320 598v4q-56 -4 -134 -4h-180v91h404l23 -95q-61 -81 -108.5 -174t-75.5 -193t-28 -199v-28h-100v29q0 82 21 176t68 199t110 194z" />
    <glyph glyph-name="eight" unicode="8" horiz-adv-x="574" 
d="M287 391q54 0 83 30.5t29 88.5q0 48 -29.5 77t-82.5 29q-54 0 -82.5 -28t-28.5 -77q0 -57 28.5 -88.5t82.5 -31.5zM285 -10q-109 0 -168 48.5t-59 146.5q0 66 35 107.5t88 57.5v4q-43 10 -72.5 50t-29.5 104q0 91 57.5 141t153.5 50q97 0 151.5 -46.5t54.5 -136.5
q0 -47 -17.5 -81.5t-41.5 -51.5t-44 -24v-4q37 -7 65 -28t43 -53.5t15 -78.5q0 -99 -61.5 -152t-169.5 -53zM285 308q-32 0 -62 -10.5t-47.5 -39t-17.5 -67.5q0 -54 32 -86.5t98 -32.5q65 0 96.5 30.5t31.5 87.5t-32 87.5t-99 30.5z" />
    <glyph glyph-name="nine" unicode="9" horiz-adv-x="532" 
d="M345 268l-3 3q-37 -21 -100 -21q-43 0 -80 13t-64.5 39t-42.5 66.5t-15 92.5q0 110 62.5 174t162.5 64q69 0 115 -27.5t71.5 -83.5t25.5 -146q0 -88 -29 -171t-81.5 -154.5t-120.5 -116.5h-136v12q174 102 235 256zM265 335q53 0 107 29q5 36 5 75q0 35 -6 67.5t-21 56.5
t-38 37.5t-56 13.5q-56 0 -86 -34.5t-30 -103.5q0 -70 32 -105.5t93 -35.5z" />
    <glyph glyph-name="colon" unicode=":" horiz-adv-x="244" 
d="M50 466q0 31 20.5 52.5t50.5 21.5q31 0 52 -21.5t21 -52.5q0 -29 -21 -50t-52 -21q-29 0 -50 21t-21 50zM50 73q0 31 20.5 52.5t50.5 21.5q31 0 52 -21.5t21 -52.5q0 -29 -21 -50t-52 -21q-29 0 -50 21t-21 50z" />
    <glyph glyph-name="semicolon" unicode=";" horiz-adv-x="257" 
d="M57 467q0 31 21 52.5t50 21.5q31 0 52.5 -21.5t21.5 -52.5q0 -29 -21.5 -50t-52.5 -21q-29 0 -50 21t-21 50zM64 -153l-30 47q39 17 61.5 41.5t22.5 51.5q0 20 -12.5 37.5t-50.5 34.5v9q0 28 19.5 48t49.5 20q37 0 59.5 -26.5t22.5 -71.5q0 -65 -44 -118.5t-98 -72.5z
" />
    <glyph glyph-name="less" unicode="&#x3c;" 
d="M139 349v-4l145 -57l221 -95v-101l-474 213v83l474 214v-101l-220 -96z" />
    <glyph glyph-name="equal" unicode="=" 
d="M31 414v84h474v-84h-474zM31 187v84h474v-84h-474z" />
    <glyph glyph-name="greater" unicode="&#x3e;" 
d="M397 344v4l-145 57l-221 96v101l474 -213v-84l-474 -213v101l221 95z" />
    <glyph glyph-name="question" unicode="?" horiz-adv-x="417" 
d="M183 637q-70 0 -120 -55l-66 76q69 67 193 67q88 0 138 -42.5t50 -119.5q0 -47 -19 -92.5t-88 -106.5l-123 -112q-46 16 -46 58q0 18 12.5 38.5t58.5 57.5t60 52t22 27t14.5 28t6.5 36q0 41 -25 64.5t-68 23.5zM120 66q0 30 20 50.5t48 20.5q31 0 51 -20t20 -51
q0 -28 -20.5 -48t-50.5 -20q-29 0 -48.5 19.5t-19.5 48.5z" />
    <glyph glyph-name="at" unicode="@" horiz-adv-x="945" 
d="M604 -16l34 -71q-38 -24 -96 -38.5t-119 -14.5q-86 0 -154 24.5t-114 70.5t-69.5 111t-23.5 144q0 95 34.5 180t97 148.5t147 99t181.5 35.5q80 0 147 -22.5t115 -65t73.5 -102t25.5 -130.5q0 -62 -16.5 -117t-47 -95t-73.5 -62.5t-94 -22.5q-40 0 -65.5 14.5t-36.5 38.5
h-4q-20 -26 -51 -39.5t-66 -13.5q-28 0 -55 8t-50 30t-32.5 55.5t-9.5 63.5q0 31 7 68t25 71.5t48.5 62.5t74.5 44.5t90 16.5q33 0 71 -8.5t62 -23.5l-31 -201q-7 -40 -7 -66q0 -44 42 -44q44 0 76.5 37.5t43.5 86.5t11 85q0 120 -75.5 185.5t-210.5 65.5
q-74 0 -140.5 -29.5t-115 -81.5t-75.5 -120.5t-27 -141.5q0 -138 73.5 -209.5t213.5 -71.5q46 0 91.5 12.5t74.5 32.5zM447 132q29 0 53.5 15t36.5 36q0 24 5 51l23 157q-24 8 -49 8q-22 0 -47 -8.5t-49.5 -31.5t-37 -58.5t-12.5 -71.5q0 -97 77 -97z" />
    <glyph glyph-name="A" unicode="A" horiz-adv-x="615" 
d="M232 701h150l224 -701h-107l-59 192h-268l-59 -192h-103zM261 477l-62 -198h214l-60 195q-3 11 -22.5 76t-22.5 81h-4q-2 -8 -8 -30.5t-19.5 -69.5t-15.5 -54z" />
    <glyph glyph-name="B" unicode="B" horiz-adv-x="615" 
d="M423 362q26 -3 57.5 -18t53.5 -51.5t22 -89.5q0 -42 -13.5 -78.5t-42.5 -64.5t-77.5 -44t-115.5 -16h-218v701h225q68 0 113 -20.5t69.5 -60t24.5 -99.5q0 -44 -16 -79.5t-39 -52.5t-43 -23v-4zM422 509q0 53 -32 79.5t-92 26.5h-110v-217h111q123 0 123 111zM319 86
q69 0 101.5 28t32.5 84q0 113 -139 113h-126v-225h131z" />
    <glyph glyph-name="C" unicode="C" horiz-adv-x="575" 
d="M57 345q0 84 19 152.5t56 116t92.5 72.5t125.5 25q60 0 110.5 -16.5t85.5 -48.5l-65 -76q-54 52 -139 52q-88 0 -135 -67t-47 -203q0 -132 48.5 -202t142.5 -70q86 0 133 47l56 -71q-25 -27 -77 -46.5t-124 -19.5t-126 25t-88.5 71.5t-51 112t-16.5 146.5z" />
    <glyph glyph-name="D" unicode="D" horiz-adv-x="654" 
d="M91 0v701h193q161 0 237.5 -83.5t76.5 -257.5q0 -81 -17.5 -147.5t-55.5 -113.5t-98.5 -73t-142.5 -26h-193zM191 614v-527h89q112 0 163 63t51 199q0 90 -22.5 147.5t-69 87.5t-126.5 30h-85z" />
    <glyph glyph-name="E" unicode="E" horiz-adv-x="538" 
d="M488 0h-397v701h384v-87h-284v-215h248v-87h-248v-225h297v-87z" />
    <glyph glyph-name="F" unicode="F" horiz-adv-x="505" 
d="M192 0h-101v701h382v-87h-281v-237h246v-87h-246v-290z" />
    <glyph glyph-name="G" unicode="G" horiz-adv-x="642" 
d="M367 711q62 0 114.5 -16t86.5 -50l-65 -74q-54 50 -141 50q-100 0 -151 -68.5t-51 -195.5q0 -73 13 -127t38.5 -88t63 -50t86.5 -16q27 0 58 5.5t49 16.5v260h101v-305q-80 -63 -229 -63q-140 0 -211.5 90t-71.5 267q0 91 23.5 161t66 114.5t99 66.5t121.5 22z" />
    <glyph glyph-name="H" unicode="H" horiz-adv-x="698" 
d="M506 701h101v-701h-101v310h-315v-310h-100v701h100v-304h315v304z" />
    <glyph glyph-name="I" unicode="I" horiz-adv-x="300" 
d="M100 0v701h101v-701h-101z" />
    <glyph glyph-name="J" unicode="J" horiz-adv-x="404" 
d="M9 11l32 91q17 -10 43 -17.5t52 -7.5q41 0 59 19t18 61v544h101v-549q0 -54 -22 -90.5t-61.5 -55.5t-96.5 -19q-42 0 -75.5 7.5t-49.5 16.5z" />
    <glyph glyph-name="K" unicode="K" horiz-adv-x="598" 
d="M191 701v-701h-100v701h100zM211 353l236 348h117l-240 -348l262 -353h-127l-248 349v4z" />
    <glyph glyph-name="L" unicode="L" horiz-adv-x="496" 
d="M91 701h100v-614h289v-87h-389v701z" />
    <glyph glyph-name="M" unicode="M" horiz-adv-x="866" 
d="M251 701l181 -464h5l181 464h157v-701h-98v582h-5l-192 -486h-97l-191 486h-6v-582h-95v701h160z" />
    <glyph glyph-name="N" unicode="N" horiz-adv-x="708" 
d="M189 578h-6q0 -2 0.5 -10.5t2.5 -59t2 -133.5v-375h-97v701h133l209 -395l4 -8t38.5 -74.5t43.5 -91.5h6q-3 43 -3 211v358h95v-701h-130l-214 403q-73 145 -84 175z" />
    <glyph glyph-name="O" unicode="O" horiz-adv-x="668" 
d="M160 355q0 -94 19 -154t56.5 -91.5t100.5 -31.5q62 0 98.5 30t54.5 88.5t18 150.5q0 93 -18.5 153t-56.5 91.5t-101 31.5q-60 0 -97 -29.5t-55.5 -88t-18.5 -150.5zM611 354q0 -93 -20 -163t-57 -114.5t-89 -65.5t-116 -21t-114.5 20t-85.5 62.5t-53.5 111.5t-18.5 163
q0 45 6.5 97.5t24.5 99.5t50.5 85.5t84 60t115.5 21.5q273 0 273 -357z" />
    <glyph glyph-name="P" unicode="P" horiz-adv-x="571" 
d="M303 701q81 0 131.5 -24.5t75.5 -68.5t25 -110q0 -51 -15 -93.5t-46 -72.5t-79 -46.5t-111 -16.5h-93v-269h-100v701h212zM283 613h-92v-258h91q80 0 114.5 33t34.5 97q0 67 -36.5 97.5t-111.5 30.5z" />
    <glyph glyph-name="Q" unicode="Q" horiz-adv-x="680" 
d="M469 17l187 -114l-100 -57l-200 147q-294 -14 -294 354q0 93 20 163t57 114t89 65.5t116 21.5q275 0 275 -357q0 -69 -13.5 -138.5t-49.5 -121.5t-87 -73v-4zM165 355q0 -93 19 -153.5t57.5 -92t100.5 -31.5q63 0 100 30t55 88t18 151q0 94 -18.5 153.5t-56.5 91
t-102 31.5q-62 0 -99 -29.5t-55.5 -88t-18.5 -150.5z" />
    <glyph glyph-name="R" unicode="R" horiz-adv-x="600" 
d="M91 701h191q236 0 236 -200q0 -31 -8 -63.5t-30 -62t-54 -46t-63 -20.5v-4q23 -11 43.5 -32.5t43.5 -61.5l123 -211h-121l-124 225q-16 30 -39 43.5t-57 13.5h-41v-282h-100v701zM191 614v-248h81q143 0 143 126q0 64 -37 93t-110 29h-77z" />
    <glyph glyph-name="S" unicode="S" horiz-adv-x="544" 
d="M267 79q61 0 95 29t34 73q0 20 -9 38.5t-33.5 37.5t-100.5 53.5t-103.5 55t-43.5 39t-28 46t-12 66.5q0 40 14.5 71.5t38 56.5t68 45.5t104.5 20.5q61 0 111 -19.5t79 -46.5l-62 -77q-61 53 -135 53q-53 0 -84.5 -27.5t-31.5 -69.5q0 -38 28.5 -65t99.5 -59.5t96 -47.5
t43.5 -30.5t33 -35t22.5 -44.5t8 -55q0 -39 -16 -75t-47 -63.5t-77 -43t-103 -15.5q-38 0 -83 8.5t-83 28t-61 40.5l59 83q85 -71 179 -71z" />
    <glyph glyph-name="T" unicode="T" horiz-adv-x="486" 
d="M193 0v614h-184v87h468v-87h-183v-614h-101z" />
    <glyph glyph-name="U" unicode="U" horiz-adv-x="686" 
d="M347 78q150 0 150 162v461h101v-448q0 -66 -19 -116t-54 -82.5t-83.5 -48.5t-107.5 -16q-60 0 -106.5 17t-77.5 49.5t-46.5 78t-15.5 100.5v466h100v-449q0 -87 41 -130.5t118 -43.5z" />
    <glyph glyph-name="V" unicode="V" horiz-adv-x="619" 
d="M237 0l-228 701h111l146 -468q1 -2 3 -9.5t20 -66.5t22 -77h4q3 17 22.5 82.5t20.5 71.5l146 467h106l-229 -701h-144z" />
    <glyph glyph-name="W" unicode="W" horiz-adv-x="936" 
d="M258 104h4q2 21 41 181l100 416h134l104 -419q1 -2 2 -7t12.5 -52.5t18 -77.5t7.5 -40h4q1 19 42 195l100 401h101l-181 -701h-134l-100 408q-40 166 -43 192h-4q0 -2 -1.5 -10.5t-12 -58t-25.5 -109.5l-104 -422h-135l-179 701h106l100 -390q42 -179 43 -207z" />
    <glyph glyph-name="X" unicode="X" horiz-adv-x="600" 
d="M298 276h-5l-164 -276h-115l228 359l-216 342h122l153 -258h5l150 258h115l-214 -340l229 -361h-120z" />
    <glyph glyph-name="Y" unicode="Y" horiz-adv-x="566" 
d="M458 701h109l-234 -456v-245h-100v245l-234 456h114l170 -353h4z" />
    <glyph glyph-name="Z" unicode="Z" horiz-adv-x="527" 
d="M150 93v-4h342v-89h-450l-16 86l342 522v4h-308v89h413l16 -86z" />
    <glyph glyph-name="bracketleft" unicode="[" horiz-adv-x="327" 
d="M189 745v-902h126v-71h-216v1044h216v-71h-126z" />
    <glyph glyph-name="backslash" unicode="\" horiz-adv-x="356" 
d="M84 730l275 -872h-86l-276 872h87z" />
    <glyph glyph-name="bracketright" unicode="]" horiz-adv-x="327" 
d="M138 -157v902h-127v71h216v-1044h-216v71h127z" />
    <glyph glyph-name="asciicircum" unicode="^" horiz-adv-x="543" 
d="M269 626l-57 -145l-76 -180h-97l177 400h111l177 -399h-99l-76 180l-56 144h-4z" />
    <glyph glyph-name="underscore" unicode="_" horiz-adv-x="500" 
d="M498 -125h-496v79h496v-79z" />
    <glyph glyph-name="grave" unicode="`" horiz-adv-x="504" 
d="M328 622l-210 127l92 53l175 -136z" />
    <glyph glyph-name="a" unicode="a" horiz-adv-x="545" 
d="M354 133v109q-69 3 -115 -8t-69.5 -33t-23.5 -55t23.5 -55.5t63.5 -22.5q38 0 70.5 19t50.5 46zM251 559q196 0 196 -172v-240q0 -71 49 -71h15v-71q-19 -10 -42 -10q-38 0 -63.5 18t-36.5 47h-4q-58 -70 -157 -70q-27 0 -55.5 8t-51.5 27t-38 47.5t-15 64.5q0 45 21 80
t61 57t97 32.5t127 8.5v55q0 57 -27 81t-78 24q-34 0 -65 -15t-51 -50l-71 55q70 94 189 94z" />
    <glyph glyph-name="b" unicode="b" horiz-adv-x="567" 
d="M79 21v738h98v-243h4q17 14 50.5 26.5t74.5 12.5q70 0 116.5 -31.5t71 -89.5t24.5 -144q0 -65 -17.5 -120.5t-52 -95.5t-86.5 -62t-118 -22q-101 0 -165 31zM256 73q75 0 119 52.5t44 153.5q0 91 -34 141.5t-104 50.5q-31 0 -59.5 -13t-43.5 -34v-338q33 -13 78 -13z" />
    <glyph glyph-name="c" unicode="c" horiz-adv-x="481" 
d="M49 268q0 72 17.5 128t50 92t76.5 54t96 18q60 0 103 -19t64 -45l-66 -69q-43 48 -104 48q-135 0 -135 -197q0 -203 135 -203q65 0 103 47l62 -64q-56 -67 -174 -67q-52 0 -94.5 16t-72 49.5t-45.5 86.5t-16 125z" />
    <glyph glyph-name="d" unicode="d" horiz-adv-x="570" 
d="M393 541v218h98v-759h-75l-19 53h-4q-12 -17 -36 -33t-52.5 -23t-52.5 -7q-95 0 -149 65t-54 195q0 75 19.5 133t54 95t81 55t100.5 18q43 0 89 -10zM277 72q41 0 71 20.5t46 55.5v304q-13 6 -37.5 10.5t-42.5 4.5q-81 0 -122.5 -49t-41.5 -158q0 -50 12.5 -95t43 -69
t71.5 -24z" />
    <glyph glyph-name="e" unicode="e" horiz-adv-x="551" 
d="M435 119l44 -74q-69 -53 -182 -53q-123 0 -185.5 69t-62.5 216q0 69 18.5 123.5t51.5 89.5t77 52.5t94 17.5q98 0 152 -59t54 -159q0 -50 -5 -96h-344q4 -90 43.5 -131t118.5 -41q38 0 72.5 13.5t53.5 31.5zM284 479q-24 0 -48.5 -9t-43.5 -28.5t-30 -50.5t-13 -71h251
l1 27q0 64 -29 98t-88 34z" />
    <glyph glyph-name="f" unicode="f" horiz-adv-x="368" 
d="M369 761l-17 -82q-35 10 -71 10q-35 0 -51 -17.5t-16 -52.5v-69h135v-73h-137v-477h-99v477h-88v73h90v70q0 68 43 110t126 42q47 0 85 -11z" />
    <glyph glyph-name="g" unicode="g" horiz-adv-x="567" 
d="M488 526v-522q0 -106 -63 -162t-171 -56q-57 0 -109 15t-84 48l57 77q22 -25 58.5 -40.5t84.5 -15.5q68 0 99 32.5t31 102.5v44h-4q-17 -15 -50.5 -27.5t-75.5 -12.5q-68 0 -115 30t-72 86t-25 141q0 63 16.5 116.5t50 92.5t85 60t116.5 21q108 0 171 -30zM390 459
q-34 14 -81 14q-74 0 -117 -50.5t-43 -148.5q0 -182 136 -182q31 0 59 12.5t46 34.5v320z" />
    <glyph glyph-name="h" unicode="h" horiz-adv-x="585" 
d="M337 558q80 0 126 -47.5t46 -132.5v-378h-99v360q0 37 -14.5 64t-39 37t-47.5 10q-22 0 -48.5 -9t-49 -30.5t-33.5 -46.5v-385h-99v759h99v-268h4q29 33 71 50t84 17z" />
    <glyph glyph-name="i" unicode="i" horiz-adv-x="291" 
d="M98 0v550h99v-550h-99zM79 705q0 28 19 47.5t46 19.5q28 0 47 -19t19 -48q0 -27 -19 -45.5t-47 -18.5q-27 0 -46 19t-19 45z" />
    <glyph glyph-name="j" unicode="j" horiz-adv-x="264" 
d="M6 -221l-33 81q62 23 86 66.5t24 123.5v500h99v-503q0 -213 -176 -268zM64 705q0 28 19 47.5t46 19.5q28 0 47 -19t19 -48q0 -27 -19 -45.5t-47 -18.5q-27 0 -46 19t-19 45z" />
    <glyph glyph-name="k" unicode="k" horiz-adv-x="522" 
d="M178 755v-755h-99v755h99zM189 285v4l184 261h119l-191 -259v-4l200 -287h-122z" />
    <glyph glyph-name="l" unicode="l" horiz-adv-x="296" 
d="M83 759h98v-616q0 -34 13 -49.5t41 -15.5q15 0 39 8v-81q-32 -13 -70 -13q-58 0 -89.5 33.5t-31.5 91.5v642z" />
    <glyph glyph-name="m" unicode="m" horiz-adv-x="877" 
d="M470 478q14 25 41 46t59.5 29.5t61.5 8.5q82 0 125.5 -46.5t43.5 -136.5v-379h-99v360q0 57 -26 86.5t-71 29.5q-40 0 -72 -24.5t-44 -58.5v-393h-99v353q0 59 -26 91t-74 32q-20 0 -43.5 -9t-42.5 -31.5t-26 -48.5v-387h-99v550h78l19 -56h4q14 19 37 36t52 24.5t54 7.5
q107 0 143 -84h4z" />
    <glyph glyph-name="n" unicode="n" horiz-adv-x="585" 
d="M509 380v-380h-99v358q0 56 -27.5 87t-78.5 31q-44 0 -78 -25.5t-48 -63.5v-387h-99v550h76l20 -56h4q14 17 40.5 34.5t57 25.5t56.5 8q61 0 99.5 -23.5t57 -63t19.5 -95.5z" />
    <glyph glyph-name="o" unicode="o" horiz-adv-x="568" 
d="M151 279q0 -104 32.5 -155t103.5 -51q70 0 100 48t30 151q0 105 -32.5 155.5t-103.5 50.5q-68 0 -99 -48.5t-31 -150.5zM281 -9q-47 0 -90.5 13.5t-75 46t-49 86.5t-17.5 136q0 99 28.5 161.5t80 94t129.5 31.5q47 0 90.5 -13.5t75 -46t49 -86.5t17.5 -136
q0 -99 -28.5 -161.5t-80 -94t-129.5 -31.5z" />
    <glyph glyph-name="p" unicode="p" horiz-adv-x="570" 
d="M521 298q0 -99 -34.5 -167t-93.5 -100t-130 -32q-43 0 -86 8v-201h-98v744h73l21 -53h4q21 27 56.5 45t83.5 18q46 0 84 -16.5t64.5 -49t41 -82.5t14.5 -114zM176 96q6 -2 28.5 -7.5t50.5 -5.5q165 0 165 204q0 51 -13 96t-45 69.5t-73 24.5q-39 0 -68 -19.5t-45 -46.5
v-315z" />
    <glyph glyph-name="q" unicode="q" horiz-adv-x="566" 
d="M488 524v-718h-96v223h-4q-17 -14 -52 -26.5t-78 -12.5q-67 0 -113.5 32t-71 90t-24.5 144q0 65 16.5 120t50 95t85.5 62t118 22q39 0 86 -6.5t83 -24.5zM307 472q-75 0 -116.5 -53.5t-41.5 -153.5q0 -191 137 -191q31 0 60 12.5t45 33.5v338q-34 14 -84 14z" />
    <glyph glyph-name="r" unicode="r" horiz-adv-x="378" 
d="M372 555v-101q-32 8 -62 8q-39 0 -76 -16.5t-57 -46.5v-399h-98v550h76l21 -67h4q19 34 55.5 55.5t83.5 21.5q33 0 53 -5z" />
    <glyph glyph-name="s" unicode="s" horiz-adv-x="480" 
d="M331 148q0 10 -4 21t-13.5 21t-27 19.5t-72 29.5t-77 34t-39 29t-28 40t-11.5 59q0 23 8.5 49t30.5 50t60.5 41.5t93.5 17.5t100 -17.5t72 -46.5l-64 -66q-19 20 -49 33.5t-62 13.5q-21 0 -43 -7t-35.5 -24.5t-13.5 -38.5q0 -24 19 -43.5t80.5 -42t91 -38.5t46 -34
t26.5 -40.5t10 -55.5q0 -45 -26 -82t-70.5 -58t-106.5 -21q-34 0 -74 8t-74.5 26t-54.5 39l60 72q26 -26 65 -44.5t83 -18.5q48 0 73.5 21.5t25.5 53.5z" />
    <glyph glyph-name="t" unicode="t" horiz-adv-x="387" 
d="M241 -5q-147 0 -147 160v317h-78v62l78 20l32 139h66v-143h147v-78h-147v-315q0 -39 19.5 -58.5t53.5 -19.5q52 0 82 21l26 -77q-43 -28 -132 -28z" />
    <glyph glyph-name="u" unicode="u" horiz-adv-x="586" 
d="M76 176v374h99v-358q0 -60 27.5 -90.5t80.5 -30.5q40 0 70 18t42.5 45t13.5 50v366h99v-550h-81l-16 55h-4q-28 -34 -69.5 -50t-84.5 -16q-174 0 -177 187z" />
    <glyph glyph-name="v" unicode="v" horiz-adv-x="502" 
d="M117 550l97 -309q25 -80 39 -147h4q11 51 39 147l96 309h101l-182 -550h-113l-189 550h108z" />
    <glyph glyph-name="w" unicode="w" horiz-adv-x="777" 
d="M394 439h-4l-109 -439h-124l-146 550h101l72 -289q23 -97 37 -175h4q12 77 34 160l78 304h114l73 -302q26 -107 34 -162h4q19 97 40 178l72 286h92l-145 -550h-126z" />
    <glyph glyph-name="x" unicode="x" horiz-adv-x="495" 
d="M367 0l-120 208h-4l-113 -208h-116l176 285l-166 265h113l113 -191h4l101 191h116l-165 -266l175 -284h-114z" />
    <glyph glyph-name="y" unicode="y" horiz-adv-x="512" 
d="M30 -198l17 85q26 -11 54 -11q46 0 75 27.5t42 83.5l-201 563h109l81 -245q35 -107 58 -198h4q14 78 51 198l76 245h102l-191 -585q-20 -61 -48.5 -98.5t-68.5 -57t-93 -19.5q-39 0 -67 12z" />
    <glyph glyph-name="z" unicode="z" horiz-adv-x="466" 
d="M151 87v-4h272v-83h-372l-15 88l264 375v4h-245v83h341l18 -88z" />
    <glyph glyph-name="braceleft" unicode="{" horiz-adv-x="343" 
d="M66 253v88q89 9 89 90q0 38 -12.5 116t-12.5 120q0 153 145 153q38 0 63 -11l-12 -68q-23 7 -43 7q-32 0 -47.5 -22t-15.5 -61q0 -38 12 -115t12 -111q0 -52 -24 -89.5t-70 -50.5v-4q46 -14 70 -51.5t24 -89.5q0 -34 -12 -113.5t-12 -117.5q0 -39 15.5 -61t47.5 -22
q20 0 43 7l12 -69q-26 -10 -59 -10q-74 0 -111.5 39.5t-37.5 113.5q0 41 12.5 122t12.5 119q0 80 -89 91z" />
    <glyph glyph-name="bar" unicode="|" horiz-adv-x="275" 
d="M174 -257h-73v1102h73v-1102z" />
    <glyph glyph-name="braceright" unicode="}" horiz-adv-x="343" 
d="M277 341v-88q-90 -11 -90 -91q0 -38 13 -119t13 -122q0 -74 -37.5 -113.5t-112.5 -39.5q-33 0 -59 10l13 69q23 -7 43 -7q31 0 47 22.5t16 60.5t-12 117.5t-12 113.5q0 52 23.5 89.5t70.5 51.5v4q-47 13 -70.5 50.5t-23.5 89.5q0 34 12 111t12 115t-16 60.5t-47 22.5
q-20 0 -43 -7l-13 68q25 11 63 11q146 0 146 -153q0 -42 -13 -120t-13 -116q0 -80 90 -90z" />
    <glyph glyph-name="asciitilde" unicode="~" horiz-adv-x="542" 
d="M25 243l-1 22q0 58 32.5 94.5t88.5 36.5q29 0 58 -9t93.5 -37t94.5 -28q45 0 45 54l-2 26l82 -12q1 -5 1 -34q-4 -55 -35 -87t-85 -32q-29 0 -58.5 9t-93.5 36.5t-94 27.5q-21 0 -33.5 -13.5t-12.5 -39.5l3 -26q-45 4 -83 12z" />
    <glyph glyph-name="exclamdown" unicode="&#xa1;" horiz-adv-x="294" 
d="M108 286h80l24 -443h-127q2 49 12.5 244.5t10.5 198.5zM216 493q0 -30 -20 -50.5t-48 -20.5q-30 0 -50 20.5t-20 50.5q0 28 20.5 47.5t49.5 19.5q28 0 48 -20t20 -47z" />
    <glyph glyph-name="cent" unicode="&#xa2;" horiz-adv-x="482" 
d="M182 -130h-62l51 141q-121 56 -121 257q0 72 18 128t50 92t76 54t95 18q42 0 77 -10l46 125h63l-54 -149q19 -12 34 -33l-71 -68l-126 -347q14 -3 29 -3q63 0 103 49l60 -66q-25 -33 -71 -50t-102 -17q-29 0 -49 4zM149 278q0 -61 14.5 -106t39.5 -68h2l132 364
q-21 9 -52 9q-63 0 -99.5 -48t-36.5 -151z" />
    <glyph glyph-name="sterling" unicode="&#xa3;" horiz-adv-x="556" 
d="M55 82q34 17 52.5 47.5t21.5 82.5l7 94h-76v81h81l9 113q5 61 30.5 104.5t71 70t110.5 26.5q110 0 168 -70l-66 -68q-39 52 -112 52q-32 0 -55 -14.5t-34 -40.5t-13 -57l-9 -116h203v-81h-209l-6 -88q-7 -94 -58 -128v-4h350v-86h-449z" />
    <glyph glyph-name="currency" unicode="&#xa4;" 
d="M48 325q0 31 10.5 64.5t26.5 57.5l-60 60l60 59l60 -60q25 17 58.5 27t67.5 10q32 0 64.5 -9.5t57.5 -24.5l58 57l60 -59l-58 -58q16 -24 26 -56.5t10 -63.5q0 -32 -11 -66t-28 -58l61 -60l-60 -59l-61 60q-25 -16 -58 -25.5t-66 -9.5t-65.5 9t-56.5 24l-59 -58l-60 59
l58 58q-16 25 -25.5 56.5t-9.5 65.5zM132 327q0 -21 6.5 -44t23 -43.5t43.5 -35t63 -14.5q59 0 98 39.5t39 97.5q0 57 -39 97t-98 40q-21 0 -44.5 -7t-43.5 -24t-34 -44t-14 -62z" />
    <glyph glyph-name="yen" unicode="&#xa5;" horiz-adv-x="547" 
d="M29 244v83h151l-176 367h114l97 -215l59 -151h4l59 152l98 214h108l-177 -367h150v-83h-192v-244h-101v244h-194z" />
    <glyph glyph-name="brokenbar" unicode="&#xa6;" horiz-adv-x="275" 
d="M174 400h-73v346h73v-346zM174 -164h-73v346h73v-346z" />
    <glyph glyph-name="section" unicode="&#xa7;" horiz-adv-x="570" 
d="M416 28h5q30 48 30 108q0 40 -17 73.5t-45 62t-97.5 83.5t-92.5 89.5t-28 56t-6 36.5q-1 6 0 16t3 16h-5q-28 -43 -28 -108q0 -23 7.5 -48t23.5 -47t34 -40.5t117.5 -98t102.5 -161.5q1 -15 -4 -38zM119 -124l15 74q40 -15 82 -15q48 0 80 14.5t47.5 39t15.5 53.5
q0 19 -7.5 38t-26 42t-93 81t-103.5 95t-43.5 75t-14.5 84q0 54 20.5 105t59.5 90.5t94.5 62.5t121.5 23q46 0 80 -9l-16 -72q-34 12 -73 12q-64 0 -100 -28.5t-36 -75.5q0 -19 8 -40.5t29.5 -47.5t89.5 -82t92.5 -84.5t39 -51.5t25 -53.5t10.5 -69.5q0 -53 -21 -102.5
t-61 -87.5t-97.5 -59.5t-126.5 -21.5q-49 0 -91 11z" />
    <glyph glyph-name="dieresis" unicode="&#xa8;" horiz-adv-x="504" 
d="M89 712q0 24 17 41t41 17q25 0 42 -17t17 -41t-17 -41t-42 -17q-24 0 -41 17t-17 41zM298 712q0 24 17 41t41 17q25 0 41.5 -16.5t16.5 -41.5q0 -24 -16.5 -41t-41.5 -17q-24 0 -41 17t-17 41z" />
    <glyph glyph-name="copyright" unicode="&#xa9;" horiz-adv-x="835" 
d="M129 346q0 -61 21.5 -114t60 -91.5t92.5 -60t115 -21.5t114 21t92 59.5t60 91.5t21 113q0 61 -21 114.5t-59.5 92.5t-92 60t-115.5 21t-115.5 -21t-92 -59.5t-59.5 -91.5t-21 -114zM51 344q0 76 27.5 143t77.5 116t118 76t144 27q78 0 145.5 -26.5t116.5 -75t76 -115
t27 -143.5q0 -75 -27.5 -142t-77.5 -116t-117.5 -76t-143.5 -27q-78 0 -145.5 26.5t-117 75t-76.5 115t-27 142.5zM257 344q0 96 47 151.5t125 55.5q35 0 61 -8.5t38.5 -18.5t17.5 -17l-43 -54q-14 16 -31.5 25t-43.5 9q-42 0 -68 -34t-26 -106q0 -73 26 -106t69 -33
q47 0 74 33l41 -54q-44 -44 -118 -44q-81 0 -125 52.5t-44 148.5z" />
    <glyph glyph-name="guillemotleft" unicode="&#xab;" horiz-adv-x="526" 
d="M256 274l167 225l64 -50l-125 -175l125 -175l-64 -49zM39 274l168 225l63 -50l-125 -175l125 -175l-63 -49z" />
    <glyph glyph-name="logicalnot" unicode="&#xac;" 
d="M515 184h-80v184h-414v78h494v-262z" />
    <glyph glyph-name="registered" unicode="&#xae;" horiz-adv-x="506" 
d="M252 332q71 0 118 46t47 120q0 47 -19.5 83.5t-56.5 60t-88 23.5q-70 0 -117 -45.5t-47 -120.5q0 -74 47 -120.5t116 -46.5zM252 288q-33 0 -69 10t-71.5 37.5t-53.5 71.5t-18 91q0 34 11 71t37 68t68 52t97 21q56 0 107.5 -25.5t78.5 -76t27 -108.5q0 -46 -16 -85.5
t-45 -68t-68.5 -43.5t-84.5 -15zM251 475h-21v-82h-46v223h73q35 0 56 -16.5t21 -49.5q0 -53 -41 -63l55 -94h-54zM230 513h23q14 0 24.5 6t10.5 27q0 31 -32 31h-26v-64z" />
    <glyph glyph-name="macron" unicode="&#xaf;" horiz-adv-x="504" 
d="M406 660h-309v78h309v-78z" />
    <glyph glyph-name="degree" unicode="&#xb0;" horiz-adv-x="370" 
d="M37 558q0 64 42.5 105t107.5 41t105.5 -39t40.5 -103t-42.5 -105t-107.5 -41t-105.5 39t-40.5 103zM101 561q0 -17 8 -38t29.5 -36t48.5 -15q36 0 58.5 25t22.5 62t-24.5 62.5t-60.5 25.5t-59 -24.5t-23 -61.5z" />
    <glyph glyph-name="plusminus" unicode="&#xb1;" 
d="M31 301v83h194v196h85v-196h195v-83h-195v-188h195v-83h-474v83h194v188h-194z" />
    <glyph glyph-name="uni00B2" unicode="&#xb2;" horiz-adv-x="363" 
d="M182 434l-59 -53l79 2h119v-61h-282l-12 57q28 26 92 88.5t76 80.5q38 44 38 80q0 27 -15 42t-43 15q-26 0 -42.5 -17.5t-19.5 -41.5l-78 15q7 33 28 57.5t51.5 35t62.5 10.5q64 0 99 -30.5t35 -80.5q0 -62 -58 -126q-6 -9 -34 -37t-37 -36z" />
    <glyph glyph-name="uni00B3" unicode="&#xb3;" horiz-adv-x="362" 
d="M312 635q0 -74 -61 -99q24 -5 42 -19t25 -34.5t7 -39.5q0 -62 -41.5 -95.5t-115.5 -33.5q-51 0 -86.5 21t-52.5 53l66 35q12 -22 33 -36t49 -14q72 0 72 66q0 32 -22.5 47.5t-70.5 15.5h-32v56h34q78 0 78 68q0 26 -16.5 43t-47.5 17q-25 0 -41 -15t-21 -38l-74 11
q6 44 43 72.5t95 28.5q62 0 100 -27.5t38 -82.5z" />
    <glyph glyph-name="acute" unicode="&#xb4;" horiz-adv-x="504" 
d="M385 749l-210 -127l-57 44l175 136z" />
    <glyph glyph-name="uni00B5" unicode="&#xb5;" horiz-adv-x="613" 
d="M564 78q9 0 16 3v-76q-19 -9 -44 -9q-28 0 -51 10.5t-35.5 30t-16.5 38.5h-4q-11 -24 -33.5 -44.5t-53.5 -29.5t-64 -9q-60 0 -101 35v-221h-98v744h99v-352q0 -126 108 -126q61 0 93 34t32 101v343h99v-389q0 -43 13 -63t41 -20z" />
    <glyph glyph-name="paragraph" unicode="&#xb6;" horiz-adv-x="585" 
d="M473 701v-701h-75v701h75zM300 588v-536q0 -82 -31 -140t-79 -95l-54 53q34 29 52 53t27 57.5t9 83.5v248h-23q-80 0 -125.5 46t-45.5 139q0 99 58 151.5t158 52.5h103v-41z" />
    <glyph glyph-name="periodcentered" unicode="&#xb7;" horiz-adv-x="250" 
d="M52 349q0 31 20.5 52.5t50.5 21.5q31 0 52 -21.5t21 -52.5q0 -29 -21 -50t-52 -21q-29 0 -50 21t-21 50z" />
    <glyph glyph-name="cedilla" unicode="&#xb8;" horiz-adv-x="504" 
d="M321 -116q0 -29 -14 -56.5t-40 -45t-54 -26.5l-31 51q62 28 62 77q0 32 -25 61v4h84q8 -11 13 -29.5t5 -35.5z" />
    <glyph glyph-name="uni00B9" unicode="&#xb9;" horiz-adv-x="303" 
d="M155 737h79v-415h-78v239l2 104h-1l-50 -36l-55 -35l-39 62z" />
    <glyph glyph-name="guillemotright" unicode="&#xbb;" horiz-adv-x="526" 
d="M103 499l167 -225l-167 -224l-64 49l126 175l-126 175zM320 499l167 -225l-167 -224l-64 49l125 175l-125 175z" />
    <glyph glyph-name="questiondown" unicode="&#xbf;" horiz-adv-x="417" 
d="M233 -79q70 0 120 55l66 -76q-69 -67 -193 -67q-88 0 -138 42.5t-50 119.5q0 47 19 92.5t88 106.5l123 112q46 -16 46 -58q0 -18 -12.5 -38.5t-58.5 -57.5t-60 -52t-22 -27t-14.5 -28t-6.5 -36q0 -41 25 -64.5t68 -23.5zM296 492q0 -30 -20 -50.5t-48 -20.5q-31 0 -51 20
t-20 51q0 28 20.5 48t50.5 20q29 0 48.5 -19.5t19.5 -48.5z" />
    <glyph glyph-name="Agrave" unicode="&#xc0;" horiz-adv-x="615" 
d="M232 701h150l224 -701h-107l-59 192h-268l-59 -192h-103zM261 477l-62 -198h214l-60 195q-3 11 -22.5 76t-22.5 81h-4q-2 -8 -8 -30.5t-19.5 -69.5t-15.5 -54zM383 777l-210 127l92 53l175 -136z" />
    <glyph glyph-name="Aacute" unicode="&#xc1;" horiz-adv-x="615" 
d="M232 701h150l224 -701h-107l-59 192h-268l-59 -192h-103zM261 477l-62 -198h214l-60 195q-3 11 -22.5 76t-22.5 81h-4q-2 -8 -8 -30.5t-19.5 -69.5t-15.5 -54zM440 904l-210 -127l-57 44l175 136z" />
    <glyph glyph-name="Acircumflex" unicode="&#xc2;" horiz-adv-x="615" 
d="M232 701h150l224 -701h-107l-59 192h-268l-59 -192h-103zM261 477l-62 -198h214l-60 195q-3 11 -22.5 76t-22.5 81h-4q-2 -8 -8 -30.5t-19.5 -69.5t-15.5 -54zM306 959l197 -124l-37 -59l-160 92l-161 -92l-35 59z" />
    <glyph glyph-name="Atilde" unicode="&#xc3;" horiz-adv-x="615" 
d="M232 701h150l224 -701h-107l-59 192h-268l-59 -192h-103zM261 477l-62 -198h214l-60 195q-3 11 -22.5 76t-22.5 81h-4q-2 -8 -8 -30.5t-19.5 -69.5t-15.5 -54zM232 913q29 0 77 -18t67 -18q41 0 67 34l39 -60q-6 -11 -21.5 -24t-36.5 -20t-40 -7q-25 0 -74.5 18.5
t-68.5 18.5q-44 0 -71 -33l-39 60q17 23 44.5 36t56.5 13z" />
    <glyph glyph-name="Adieresis" unicode="&#xc4;" horiz-adv-x="615" 
d="M232 701h150l224 -701h-107l-59 192h-268l-59 -192h-103zM261 477l-62 -198h214l-60 195q-3 11 -22.5 76t-22.5 81h-4q-2 -8 -8 -30.5t-19.5 -69.5t-15.5 -54zM144 867q0 24 17 41t41 17q25 0 42 -17t17 -41t-17 -41t-42 -17q-24 0 -41 17t-17 41zM353 867q0 24 17 41
t41 17q25 0 41.5 -16.5t16.5 -41.5q0 -24 -16.5 -41t-41.5 -17q-24 0 -41 17t-17 41z" />
    <glyph glyph-name="Aring" unicode="&#xc5;" horiz-adv-x="615" 
d="M232 701h150l224 -701h-107l-59 192h-268l-59 -192h-103zM191 867q0 50 32.5 82t84.5 32q24 0 51 -10t45 -36.5t18 -61.5q0 -36 -18.5 -64.5t-46.5 -39.5t-52 -11t-51 10t-45 36.5t-18 62.5zM261 477l-62 -198h214l-60 195q-3 11 -22.5 76t-22.5 81h-4q-2 -8 -8 -30.5
t-19.5 -69.5t-15.5 -54zM364 869q0 26 -15.5 42.5t-43.5 16.5q-26 0 -41 -15.5t-15 -41.5t15.5 -42.5t42.5 -16.5t42 15.5t15 41.5z" />
    <glyph glyph-name="AE" unicode="&#xc6;" horiz-adv-x="872" 
d="M822 0h-385v206h-226l-110 -206h-106l375 701h439v-87h-277v-215h241v-87h-241v-225h290v-87zM437 623h-4l-177 -331h181v331z" />
    <glyph glyph-name="Ccedilla" unicode="&#xc7;" horiz-adv-x="575" 
d="M57 345q0 84 19 152.5t56 116t92.5 72.5t125.5 25q60 0 110.5 -16.5t85.5 -48.5l-65 -76q-54 52 -139 52q-88 0 -135 -67t-47 -203q0 -132 48.5 -202t142.5 -70q86 0 133 47l56 -71q-25 -27 -77 -46.5t-124 -19.5t-126 25t-88.5 71.5t-51 112t-16.5 146.5zM390 -116
q0 -29 -14 -56.5t-40 -45t-54 -26.5l-31 51q62 28 62 77q0 32 -25 61v4h84q8 -11 13 -29.5t5 -35.5z" />
    <glyph glyph-name="Egrave" unicode="&#xc8;" horiz-adv-x="538" 
d="M488 0h-397v701h384v-87h-284v-215h248v-87h-248v-225h297v-87zM345 777l-210 127l92 53l175 -136z" />
    <glyph glyph-name="Eacute" unicode="&#xc9;" horiz-adv-x="538" 
d="M402 904l-210 -127l-57 44l175 136zM488 0h-397v701h384v-87h-284v-215h248v-87h-248v-225h297v-87z" />
    <glyph glyph-name="Ecircumflex" unicode="&#xca;" horiz-adv-x="538" 
d="M268 959l197 -124l-37 -59l-160 92l-161 -92l-35 59zM488 0h-397v701h384v-87h-284v-215h248v-87h-248v-225h297v-87z" />
    <glyph glyph-name="Edieresis" unicode="&#xcb;" horiz-adv-x="538" 
d="M105 867q0 24 17 41t41 17q25 0 42 -17t17 -41t-17 -41t-42 -17q-24 0 -41 17t-17 41zM314 867q0 24 17 41t41 17q25 0 41.5 -16.5t16.5 -41.5q0 -24 -16.5 -41t-41.5 -17q-24 0 -41 17t-17 41zM488 0h-397v701h384v-87h-284v-215h248v-87h-248v-225h297v-87z" />
    <glyph glyph-name="Igrave" unicode="&#xcc;" horiz-adv-x="300" 
d="M100 0v701h101v-701h-101zM227 777l-210 127l92 53l175 -136z" />
    <glyph glyph-name="Iacute" unicode="&#xcd;" horiz-adv-x="300" 
d="M100 0v701h101v-701h-101zM284 904l-210 -127l-57 44l175 136z" />
    <glyph glyph-name="Icircumflex" unicode="&#xce;" horiz-adv-x="300" 
d="M100 0v701h101v-701h-101zM150 959l197 -124l-37 -59l-160 92l-161 -92l-35 59z" />
    <glyph glyph-name="Idieresis" unicode="&#xcf;" horiz-adv-x="300" 
d="M100 0v701h101v-701h-101zM-12 867q0 24 17 41t41 17q25 0 42 -17t17 -41t-17 -41t-42 -17q-24 0 -41 17t-17 41zM197 867q0 24 17 41t41 17q25 0 41.5 -16.5t16.5 -41.5q0 -24 -16.5 -41t-41.5 -17q-24 0 -41 17t-17 41z" />
    <glyph glyph-name="Eth" unicode="&#xd0;" horiz-adv-x="661" 
d="M97 0v331h-75v71h75v299h194q161 0 237 -83.5t76 -257.5q0 -81 -17.5 -147.5t-55 -113.5t-98 -73t-142.5 -26h-194zM347 331h-149v-244h89q112 0 163 63t51 199q0 90 -22.5 147.5t-69 87.5t-126.5 30h-85v-212h149v-71z" />
    <glyph glyph-name="Ntilde" unicode="&#xd1;" horiz-adv-x="708" 
d="M189 578h-6q0 -2 0.5 -10.5t2.5 -59t2 -133.5v-375h-97v701h133l209 -395l4 -8t38.5 -74.5t43.5 -91.5h6q-3 43 -3 211v358h95v-701h-130l-214 403q-73 145 -84 175zM279 913q29 0 77 -18t67 -18q41 0 67 34l39 -60q-6 -11 -21.5 -24t-36.5 -20t-40 -7q-25 0 -74.5 18.5
t-68.5 18.5q-44 0 -71 -33l-39 60q17 23 44.5 36t56.5 13z" />
    <glyph glyph-name="Ograve" unicode="&#xd2;" horiz-adv-x="679" 
d="M165 355q0 -94 19 -154t56.5 -91.5t100.5 -31.5q62 0 98.5 30t54.5 88.5t18 150.5q0 93 -18.5 153t-56.5 91.5t-101 31.5q-60 0 -97 -29.5t-55.5 -88t-18.5 -150.5zM616 354q0 -93 -20 -163t-57 -114.5t-89 -65.5t-116 -21t-114.5 20t-85.5 62.5t-53.5 111.5t-18.5 163
q0 45 6.5 97.5t24.5 99.5t50.5 85.5t84 60t115.5 21.5q273 0 273 -357zM416 777l-210 127l92 53l175 -136z" />
    <glyph glyph-name="Oacute" unicode="&#xd3;" horiz-adv-x="679" 
d="M473 904l-210 -127l-57 44l175 136zM165 355q0 -94 19 -154t56.5 -91.5t100.5 -31.5q62 0 98.5 30t54.5 88.5t18 150.5q0 93 -18.5 153t-56.5 91.5t-101 31.5q-60 0 -97 -29.5t-55.5 -88t-18.5 -150.5zM616 354q0 -93 -20 -163t-57 -114.5t-89 -65.5t-116 -21t-114.5 20
t-85.5 62.5t-53.5 111.5t-18.5 163q0 45 6.5 97.5t24.5 99.5t50.5 85.5t84 60t115.5 21.5q273 0 273 -357z" />
    <glyph glyph-name="Ocircumflex" unicode="&#xd4;" horiz-adv-x="679" 
d="M339 959l197 -124l-37 -59l-160 92l-161 -92l-35 59zM165 355q0 -94 19 -154t56.5 -91.5t100.5 -31.5q62 0 98.5 30t54.5 88.5t18 150.5q0 93 -18.5 153t-56.5 91.5t-101 31.5q-60 0 -97 -29.5t-55.5 -88t-18.5 -150.5zM616 354q0 -93 -20 -163t-57 -114.5t-89 -65.5
t-116 -21t-114.5 20t-85.5 62.5t-53.5 111.5t-18.5 163q0 45 6.5 97.5t24.5 99.5t50.5 85.5t84 60t115.5 21.5q273 0 273 -357z" />
    <glyph glyph-name="Otilde" unicode="&#xd5;" horiz-adv-x="679" 
d="M165 355q0 -94 19 -154t56.5 -91.5t100.5 -31.5q62 0 98.5 30t54.5 88.5t18 150.5q0 93 -18.5 153t-56.5 91.5t-101 31.5q-60 0 -97 -29.5t-55.5 -88t-18.5 -150.5zM616 354q0 -93 -20 -163t-57 -114.5t-89 -65.5t-116 -21t-114.5 20t-85.5 62.5t-53.5 111.5t-18.5 163
q0 45 6.5 97.5t24.5 99.5t50.5 85.5t84 60t115.5 21.5q273 0 273 -357zM265 913q29 0 77 -18t67 -18q41 0 67 34l39 -60q-6 -11 -21.5 -24t-36.5 -20t-40 -7q-25 0 -74.5 18.5t-68.5 18.5q-44 0 -71 -33l-39 60q17 23 44.5 36t56.5 13z" />
    <glyph glyph-name="Odieresis" unicode="&#xd6;" horiz-adv-x="679" 
d="M176 867q0 24 17 41t41 17q25 0 42 -17t17 -41t-17 -41t-42 -17q-24 0 -41 17t-17 41zM385 867q0 24 17 41t41 17q25 0 41.5 -16.5t16.5 -41.5q0 -24 -16.5 -41t-41.5 -17q-24 0 -41 17t-17 41zM165 355q0 -94 19 -154t56.5 -91.5t100.5 -31.5q62 0 98.5 30t54.5 88.5
t18 150.5q0 93 -18.5 153t-56.5 91.5t-101 31.5q-60 0 -97 -29.5t-55.5 -88t-18.5 -150.5zM616 354q0 -93 -20 -163t-57 -114.5t-89 -65.5t-116 -21t-114.5 20t-85.5 62.5t-53.5 111.5t-18.5 163q0 45 6.5 97.5t24.5 99.5t50.5 85.5t84 60t115.5 21.5q273 0 273 -357z" />
    <glyph glyph-name="multiply" unicode="&#xd7;" 
d="M60 493l58 57l150 -152l150 153l58 -59l-152 -150l152 -150l-58 -57l-150 152l-150 -153l-58 59l153 150z" />
    <glyph glyph-name="Oslash" unicode="&#xd8;" horiz-adv-x="679" 
d="M623 354q0 -93 -20.5 -163t-58.5 -114.5t-91.5 -65.5t-117.5 -21q-97 0 -159 43l-27 -42h-92v1l62 95q-62 88 -62 260q0 93 20.5 163t58.5 114t90.5 65.5t116.5 21.5q96 0 159 -44l29 44h92v-2l-64 -96q64 -91 64 -259zM160 355q0 -106 27 -166l260 396q-41 38 -110 38
q-63 0 -101 -29.5t-57 -88t-19 -150.5zM519 347q0 101 -27 165l-260 -396q41 -38 110 -38q63 0 101 30t57 88.5t19 150.5z" />
    <glyph glyph-name="Ugrave" unicode="&#xd9;" horiz-adv-x="686" 
d="M347 78q150 0 150 162v461h101v-448q0 -66 -19 -116t-54 -82.5t-83.5 -48.5t-107.5 -16q-60 0 -106.5 17t-77.5 49.5t-46.5 78t-15.5 100.5v466h100v-449q0 -87 41 -130.5t118 -43.5zM418 777l-210 127l92 53l175 -136z" />
    <glyph glyph-name="Uacute" unicode="&#xda;" horiz-adv-x="686" 
d="M475 904l-210 -127l-57 44l175 136zM347 78q150 0 150 162v461h101v-448q0 -66 -19 -116t-54 -82.5t-83.5 -48.5t-107.5 -16q-60 0 -106.5 17t-77.5 49.5t-46.5 78t-15.5 100.5v466h100v-449q0 -87 41 -130.5t118 -43.5z" />
    <glyph glyph-name="Ucircumflex" unicode="&#xdb;" horiz-adv-x="686" 
d="M341 959l197 -124l-37 -59l-160 92l-161 -92l-35 59zM347 78q150 0 150 162v461h101v-448q0 -66 -19 -116t-54 -82.5t-83.5 -48.5t-107.5 -16q-60 0 -106.5 17t-77.5 49.5t-46.5 78t-15.5 100.5v466h100v-449q0 -87 41 -130.5t118 -43.5z" />
    <glyph glyph-name="Udieresis" unicode="&#xdc;" horiz-adv-x="686" 
d="M179 867q0 24 17 41t41 17q25 0 42 -17t17 -41t-17 -41t-42 -17q-24 0 -41 17t-17 41zM388 867q0 24 17 41t41 17q25 0 41.5 -16.5t16.5 -41.5q0 -24 -16.5 -41t-41.5 -17q-24 0 -41 17t-17 41zM347 78q150 0 150 162v461h101v-448q0 -66 -19 -116t-54 -82.5t-83.5 -48.5
t-107.5 -16q-60 0 -106.5 17t-77.5 49.5t-46.5 78t-15.5 100.5v466h100v-449q0 -87 41 -130.5t118 -43.5z" />
    <glyph glyph-name="Yacute" unicode="&#xdd;" horiz-adv-x="566" 
d="M567 701h-109l-171 -353h-4l-170 353h-114l234 -456v-245h100v245zM416 904l-210 -127l-57 44l175 136z" />
    <glyph glyph-name="Thorn" unicode="&#xde;" horiz-adv-x="532" 
d="M189 701v-134q6 2 36 5t56 3q72 0 119 -25t71 -70t24 -112q0 -114 -59.5 -175.5t-175.5 -61.5q-48 0 -71 6v-137h-98v701h98zM259 486q-10 0 -36.5 -2.5t-32.5 -4.5v-253q5 -2 22.5 -4.5t39.5 -2.5q139 0 139 135q0 132 -132 132z" />
    <glyph glyph-name="germandbls" unicode="&#xdf;" horiz-adv-x="604" 
d="M229 29l41 78q52 -34 112 -34q44 0 69.5 21t25.5 55q0 23 -15 45.5t-64 50t-66.5 39t-30 25.5t-20 29.5t-7.5 36.5q0 7 2 17.5t8 23t12 20.5t49 57t43 96q0 20 -9 41.5t-33 34.5t-57 13q-54 0 -83.5 -34t-29.5 -102v-542h-97v540q0 108 58 164.5t155 56.5q90 0 141 -45.5
t51 -116.5q0 -41 -16 -75.5t-49 -70.5t-38.5 -47t-5.5 -18q0 -11 10 -23.5t46.5 -34t55.5 -34t35.5 -29t26 -30.5t16.5 -35t7 -48q0 -50 -25 -86.5t-68 -56.5t-103 -20q-33 0 -73.5 8.5t-73.5 29.5z" />
    <glyph glyph-name="agrave" unicode="&#xe0;" horiz-adv-x="549" 
d="M354 133v109q-69 3 -115 -8t-69.5 -33t-23.5 -55t23.5 -55.5t63.5 -22.5q38 0 70.5 19t50.5 46zM251 559q196 0 196 -172v-240q0 -71 49 -71h15v-71q-19 -10 -42 -10q-38 0 -63.5 18t-36.5 47h-4q-58 -70 -157 -70q-27 0 -55.5 8t-51.5 27t-38 47.5t-15 64.5q0 45 21 80
t61 57t97 32.5t127 8.5v55q0 57 -27 81t-78 24q-34 0 -65 -15t-51 -50l-71 55q70 94 189 94zM350 622l-210 127l92 53l175 -136z" />
    <glyph glyph-name="aacute" unicode="&#xe1;" horiz-adv-x="549" 
d="M354 133v109q-69 3 -115 -8t-69.5 -33t-23.5 -55t23.5 -55.5t63.5 -22.5q38 0 70.5 19t50.5 46zM251 559q196 0 196 -172v-240q0 -71 49 -71h15v-71q-19 -10 -42 -10q-38 0 -63.5 18t-36.5 47h-4q-58 -70 -157 -70q-27 0 -55.5 8t-51.5 27t-38 47.5t-15 64.5q0 45 21 80
t61 57t97 32.5t127 8.5v55q0 57 -27 81t-78 24q-34 0 -65 -15t-51 -50l-71 55q70 94 189 94zM407 749l-210 -127l-57 44l175 136z" />
    <glyph glyph-name="acircumflex" unicode="&#xe2;" horiz-adv-x="549" 
d="M354 133v109q-69 3 -115 -8t-69.5 -33t-23.5 -55t23.5 -55.5t63.5 -22.5q38 0 70.5 19t50.5 46zM251 559q196 0 196 -172v-240q0 -71 49 -71h15v-71q-19 -10 -42 -10q-38 0 -63.5 18t-36.5 47h-4q-58 -70 -157 -70q-27 0 -55.5 8t-51.5 27t-38 47.5t-15 64.5q0 45 21 80
t61 57t97 32.5t127 8.5v55q0 57 -27 81t-78 24q-34 0 -65 -15t-51 -50l-71 55q70 94 189 94zM273 804l197 -124l-37 -59l-160 92l-161 -92l-35 59z" />
    <glyph glyph-name="atilde" unicode="&#xe3;" horiz-adv-x="549" 
d="M354 133v109q-69 3 -115 -8t-69.5 -33t-23.5 -55t23.5 -55.5t63.5 -22.5q38 0 70.5 19t50.5 46zM251 559q196 0 196 -172v-240q0 -71 49 -71h15v-71q-19 -10 -42 -10q-38 0 -63.5 18t-36.5 47h-4q-58 -70 -157 -70q-27 0 -55.5 8t-51.5 27t-38 47.5t-15 64.5q0 45 21 80
t61 57t97 32.5t127 8.5v55q0 57 -27 81t-78 24q-34 0 -65 -15t-51 -50l-71 55q70 94 189 94zM199 758q29 0 77 -18t67 -18q41 0 67 34l39 -60q-6 -11 -21.5 -24t-36.5 -20t-40 -7q-25 0 -74.5 18.5t-68.5 18.5q-44 0 -71 -33l-39 60q17 23 44.5 36t56.5 13z" />
    <glyph glyph-name="adieresis" unicode="&#xe4;" horiz-adv-x="549" 
d="M354 133v109q-69 3 -115 -8t-69.5 -33t-23.5 -55t23.5 -55.5t63.5 -22.5q38 0 70.5 19t50.5 46zM251 559q196 0 196 -172v-240q0 -71 49 -71h15v-71q-19 -10 -42 -10q-38 0 -63.5 18t-36.5 47h-4q-58 -70 -157 -70q-27 0 -55.5 8t-51.5 27t-38 47.5t-15 64.5q0 45 21 80
t61 57t97 32.5t127 8.5v55q0 57 -27 81t-78 24q-34 0 -65 -15t-51 -50l-71 55q70 94 189 94zM111 712q0 24 17 41t41 17q25 0 42 -17t17 -41t-17 -41t-42 -17q-24 0 -41 17t-17 41zM320 712q0 24 17 41t41 17q25 0 41.5 -16.5t16.5 -41.5q0 -24 -16.5 -41t-41.5 -17
q-24 0 -41 17t-17 41z" />
    <glyph glyph-name="aring" unicode="&#xe5;" horiz-adv-x="549" 
d="M354 133v109q-69 3 -115 -8t-69.5 -33t-23.5 -55t23.5 -55.5t63.5 -22.5q38 0 70.5 19t50.5 46zM251 559q196 0 196 -172v-240q0 -71 49 -71h15v-71q-19 -10 -42 -10q-38 0 -63.5 18t-36.5 47h-4q-58 -70 -157 -70q-27 0 -55.5 8t-51.5 27t-38 47.5t-15 64.5q0 45 21 80
t61 57t97 32.5t127 8.5v55q0 57 -27 81t-78 24q-34 0 -65 -15t-51 -50l-71 55q70 94 189 94zM158 712q0 50 32.5 82t84.5 32q24 0 51 -10t45 -36.5t18 -61.5q0 -36 -18.5 -64.5t-46.5 -39.5t-52 -11t-51 10t-45 36.5t-18 62.5zM331 714q0 26 -15.5 42.5t-43.5 16.5
q-26 0 -41 -15.5t-15 -41.5t15.5 -42.5t42.5 -16.5t42 15.5t15 41.5z" />
    <glyph glyph-name="ae" unicode="&#xe6;" horiz-adv-x="854" 
d="M409 83h-4q-23 -51 -69.5 -73.5t-120.5 -22.5q-35 0 -68 8.5t-58 28t-39.5 48.5t-14.5 67q0 96 81.5 139.5t240.5 43.5v47q0 52 -28 79t-81 27q-79 0 -124 -63l-65 67q65 80 193 80q131 0 171 -80h4q58 81 164 81q100 0 155 -59.5t55 -161.5q0 -49 -8 -95h-343
q7 -90 47 -130t117 -40q80 0 134 52l49 -72q-30 -28 -79 -45t-115 -17q-142 0 -194 91zM230 65q64 0 95.5 32.5t31.5 93.5v59q-117 0 -169.5 -22.5t-52.5 -77.5q0 -35 26.5 -60t68.5 -25zM582 479q-53 0 -89 -38t-42 -121h251l1 26q0 41 -14 72.5t-42.5 46t-64.5 14.5z" />
    <glyph glyph-name="ccedilla" unicode="&#xe7;" horiz-adv-x="481" 
d="M49 268q0 72 17.5 128t50 92t76.5 54t96 18q60 0 103 -19t64 -45l-66 -69q-43 48 -104 48q-135 0 -135 -197q0 -203 135 -203q65 0 103 47l62 -64q-56 -67 -174 -67q-52 0 -94.5 16t-72 49.5t-45.5 86.5t-16 125zM342 -116q0 -29 -14 -56.5t-40 -45t-54 -26.5l-31 51
q62 28 62 77q0 32 -25 61v4h84q8 -11 13 -29.5t5 -35.5z" />
    <glyph glyph-name="egrave" unicode="&#xe8;" horiz-adv-x="551" 
d="M435 119l44 -74q-69 -53 -182 -53q-123 0 -185.5 69t-62.5 216q0 69 18.5 123.5t51.5 89.5t77 52.5t94 17.5q98 0 152 -59t54 -159q0 -50 -5 -96h-344q4 -90 43.5 -131t118.5 -41q38 0 72.5 13.5t53.5 31.5zM284 479q-24 0 -48.5 -9t-43.5 -28.5t-30 -50.5t-13 -71h251
l1 27q0 64 -29 98t-88 34zM351 622l-210 127l92 53l175 -136z" />
    <glyph glyph-name="eacute" unicode="&#xe9;" horiz-adv-x="551" 
d="M408 749l-210 -127l-57 44l175 136zM435 119l44 -74q-69 -53 -182 -53q-123 0 -185.5 69t-62.5 216q0 69 18.5 123.5t51.5 89.5t77 52.5t94 17.5q98 0 152 -59t54 -159q0 -50 -5 -96h-344q4 -90 43.5 -131t118.5 -41q38 0 72.5 13.5t53.5 31.5zM284 479q-24 0 -48.5 -9
t-43.5 -28.5t-30 -50.5t-13 -71h251l1 27q0 64 -29 98t-88 34z" />
    <glyph glyph-name="ecircumflex" unicode="&#xea;" horiz-adv-x="551" 
d="M274 804l197 -124l-37 -59l-160 92l-161 -92l-35 59zM435 119l44 -74q-69 -53 -182 -53q-123 0 -185.5 69t-62.5 216q0 69 18.5 123.5t51.5 89.5t77 52.5t94 17.5q98 0 152 -59t54 -159q0 -50 -5 -96h-344q4 -90 43.5 -131t118.5 -41q38 0 72.5 13.5t53.5 31.5zM284 479
q-24 0 -48.5 -9t-43.5 -28.5t-30 -50.5t-13 -71h251l1 27q0 64 -29 98t-88 34z" />
    <glyph glyph-name="edieresis" unicode="&#xeb;" horiz-adv-x="551" 
d="M112 712q0 24 17 41t41 17q25 0 42 -17t17 -41t-17 -41t-42 -17q-24 0 -41 17t-17 41zM321 712q0 24 17 41t41 17q25 0 41.5 -16.5t16.5 -41.5q0 -24 -16.5 -41t-41.5 -17q-24 0 -41 17t-17 41zM435 119l44 -74q-69 -53 -182 -53q-123 0 -185.5 69t-62.5 216
q0 69 18.5 123.5t51.5 89.5t77 52.5t94 17.5q98 0 152 -59t54 -159q0 -50 -5 -96h-344q4 -90 43.5 -131t118.5 -41q38 0 72.5 13.5t53.5 31.5zM284 479q-24 0 -48.5 -9t-43.5 -28.5t-30 -50.5t-13 -71h251l1 27q0 64 -29 98t-88 34z" />
    <glyph glyph-name="igrave" unicode="&#xec;" horiz-adv-x="291" 
d="M98 0v550h99v-550h-99zM222 622l-210 127l92 53l175 -136z" />
    <glyph glyph-name="iacute" unicode="&#xed;" horiz-adv-x="291" 
d="M98 0v550h99v-550h-99zM279 749l-210 -127l-57 44l175 136z" />
    <glyph glyph-name="icircumflex" unicode="&#xee;" horiz-adv-x="291" 
d="M98 0v550h99v-550h-99zM145 804l197 -124l-37 -59l-160 92l-161 -92l-35 59z" />
    <glyph glyph-name="idieresis" unicode="&#xef;" horiz-adv-x="291" 
d="M98 0v550h99v-550h-99zM-17 712q0 24 17 41t41 17q25 0 42 -17t17 -41t-17 -41t-42 -17q-24 0 -41 17t-17 41zM192 712q0 24 17 41t41 17q25 0 41.5 -16.5t16.5 -41.5q0 -24 -16.5 -41t-41.5 -17q-24 0 -41 17t-17 41z" />
    <glyph glyph-name="eth" unicode="&#xf0;" horiz-adv-x="540" 
d="M483 276q0 -133 -58 -206.5t-165 -73.5q-95 0 -152 59t-57 162q0 42 11.5 83t38 73.5t67 52.5t91.5 20q59 0 102 -20l2 1q-11 33 -30 66.5t-40 59.5l-157 -79v68l110 57q-53 46 -143 94v8h143q46 -27 83 -63l133 67v-68l-90 -47q36 -46 63 -103t37.5 -112.5t10.5 -98.5z
M391 258q0 38 -6 77q-20 13 -52 22t-61 9q-60 0 -92.5 -34.5t-32.5 -107.5q0 -44 15 -78.5t44 -50t63 -15.5q122 0 122 178z" />
    <glyph glyph-name="ntilde" unicode="&#xf1;" horiz-adv-x="585" 
d="M509 380v-380h-99v358q0 56 -27.5 87t-78.5 31q-44 0 -78 -25.5t-48 -63.5v-387h-99v550h76l20 -56h4q14 17 40.5 34.5t57 25.5t56.5 8q61 0 99.5 -23.5t57 -63t19.5 -95.5zM217 758q29 0 77 -18t67 -18q41 0 67 34l39 -60q-6 -11 -21.5 -24t-36.5 -20t-40 -7
q-25 0 -74.5 18.5t-68.5 18.5q-44 0 -71 -33l-39 60q17 23 44.5 36t56.5 13z" />
    <glyph glyph-name="ograve" unicode="&#xf2;" horiz-adv-x="568" 
d="M151 279q0 -104 32.5 -155t103.5 -51q70 0 100 48t30 151q0 105 -32.5 155.5t-103.5 50.5q-68 0 -99 -48.5t-31 -150.5zM281 -9q-47 0 -90.5 13.5t-75 46t-49 86.5t-17.5 136q0 99 28.5 161.5t80 94t129.5 31.5q47 0 90.5 -13.5t75 -46t49 -86.5t17.5 -136
q0 -99 -28.5 -161.5t-80 -94t-129.5 -31.5zM360 622l-210 127l92 53l175 -136z" />
    <glyph glyph-name="oacute" unicode="&#xf3;" horiz-adv-x="568" 
d="M417 749l-210 -127l-57 44l175 136zM151 279q0 -104 32.5 -155t103.5 -51q70 0 100 48t30 151q0 105 -32.5 155.5t-103.5 50.5q-68 0 -99 -48.5t-31 -150.5zM281 -9q-47 0 -90.5 13.5t-75 46t-49 86.5t-17.5 136q0 99 28.5 161.5t80 94t129.5 31.5q47 0 90.5 -13.5
t75 -46t49 -86.5t17.5 -136q0 -99 -28.5 -161.5t-80 -94t-129.5 -31.5z" />
    <glyph glyph-name="ocircumflex" unicode="&#xf4;" horiz-adv-x="568" 
d="M283 804l197 -124l-37 -59l-160 92l-161 -92l-35 59zM151 279q0 -104 32.5 -155t103.5 -51q70 0 100 48t30 151q0 105 -32.5 155.5t-103.5 50.5q-68 0 -99 -48.5t-31 -150.5zM281 -9q-47 0 -90.5 13.5t-75 46t-49 86.5t-17.5 136q0 99 28.5 161.5t80 94t129.5 31.5
q47 0 90.5 -13.5t75 -46t49 -86.5t17.5 -136q0 -99 -28.5 -161.5t-80 -94t-129.5 -31.5z" />
    <glyph glyph-name="otilde" unicode="&#xf5;" horiz-adv-x="568" 
d="M151 279q0 -104 32.5 -155t103.5 -51q70 0 100 48t30 151q0 105 -32.5 155.5t-103.5 50.5q-68 0 -99 -48.5t-31 -150.5zM281 -9q-47 0 -90.5 13.5t-75 46t-49 86.5t-17.5 136q0 99 28.5 161.5t80 94t129.5 31.5q47 0 90.5 -13.5t75 -46t49 -86.5t17.5 -136
q0 -99 -28.5 -161.5t-80 -94t-129.5 -31.5zM209 758q29 0 77 -18t67 -18q41 0 67 34l39 -60q-6 -11 -21.5 -24t-36.5 -20t-40 -7q-25 0 -74.5 18.5t-68.5 18.5q-44 0 -71 -33l-39 60q17 23 44.5 36t56.5 13z" />
    <glyph glyph-name="odieresis" unicode="&#xf6;" horiz-adv-x="568" 
d="M121 712q0 24 17 41t41 17q25 0 42 -17t17 -41t-17 -41t-42 -17q-24 0 -41 17t-17 41zM330 712q0 24 17 41t41 17q25 0 41.5 -16.5t16.5 -41.5q0 -24 -16.5 -41t-41.5 -17q-24 0 -41 17t-17 41zM151 279q0 -104 32.5 -155t103.5 -51q70 0 100 48t30 151
q0 105 -32.5 155.5t-103.5 50.5q-68 0 -99 -48.5t-31 -150.5zM281 -9q-47 0 -90.5 13.5t-75 46t-49 86.5t-17.5 136q0 99 28.5 161.5t80 94t129.5 31.5q47 0 90.5 -13.5t75 -46t49 -86.5t17.5 -136q0 -99 -28.5 -161.5t-80 -94t-129.5 -31.5z" />
    <glyph glyph-name="divide" unicode="&#xf7;" 
d="M31 301v83h474v-83h-474zM202 525q0 27 19 46t46 19t46.5 -19t19.5 -46t-19.5 -46t-46.5 -19t-46 19t-19 46zM202 159q0 27 19 46.5t46 19.5t46.5 -19.5t19.5 -46.5q0 -26 -19.5 -45t-46.5 -19t-46 19t-19 45z" />
    <glyph glyph-name="oslash" unicode="&#xf8;" horiz-adv-x="568" 
d="M281 -9q-38 0 -69.5 7.5t-55.5 22.5l-21 -31h-85v4l51 74q-52 70 -52 205q0 99 28.5 161.5t80 94t129.5 31.5q38 0 70 -7.5t56 -22.5l21 30h84v-3l-50 -75q51 -68 51 -204q0 -99 -28.5 -161.5t-80 -94t-129.5 -31.5zM419 272q0 70 -17 113l-194 -288q29 -24 79 -24
q70 0 101 48.5t31 150.5zM149 279q0 -69 17 -114l195 288q-14 12 -35.5 18.5t-44.5 6.5q-69 0 -100.5 -49t-31.5 -150z" />
    <glyph glyph-name="ugrave" unicode="&#xf9;" horiz-adv-x="586" 
d="M76 176v374h99v-358q0 -60 27.5 -90.5t80.5 -30.5q40 0 70 18t42.5 45t13.5 50v366h99v-550h-81l-16 55h-4q-28 -34 -69.5 -50t-84.5 -16q-174 0 -177 187zM369 622l-210 127l92 53l175 -136z" />
    <glyph glyph-name="uacute" unicode="&#xfa;" horiz-adv-x="586" 
d="M426 749l-210 -127l-57 44l175 136zM76 176v374h99v-358q0 -60 27.5 -90.5t80.5 -30.5q40 0 70 18t42.5 45t13.5 50v366h99v-550h-81l-16 55h-4q-28 -34 -69.5 -50t-84.5 -16q-174 0 -177 187z" />
    <glyph glyph-name="ucircumflex" unicode="&#xfb;" horiz-adv-x="586" 
d="M292 804l197 -124l-37 -59l-160 92l-161 -92l-35 59zM76 176v374h99v-358q0 -60 27.5 -90.5t80.5 -30.5q40 0 70 18t42.5 45t13.5 50v366h99v-550h-81l-16 55h-4q-28 -34 -69.5 -50t-84.5 -16q-174 0 -177 187z" />
    <glyph glyph-name="udieresis" unicode="&#xfc;" horiz-adv-x="586" 
d="M130 712q0 24 17 41t41 17q25 0 42 -17t17 -41t-17 -41t-42 -17q-24 0 -41 17t-17 41zM339 712q0 24 17 41t41 17q25 0 41.5 -16.5t16.5 -41.5q0 -24 -16.5 -41t-41.5 -17q-24 0 -41 17t-17 41zM76 176v374h99v-358q0 -60 27.5 -90.5t80.5 -30.5q40 0 70 18t42.5 45
t13.5 50v366h99v-550h-81l-16 55h-4q-28 -34 -69.5 -50t-84.5 -16q-174 0 -177 187z" />
    <glyph glyph-name="yacute" unicode="&#xfd;" horiz-adv-x="512" 
d="M30 -198l17 85q26 -11 54 -11q46 0 75 27.5t42 83.5l-201 563h109l81 -245q35 -107 58 -198h4q14 78 51 198l76 245h102l-191 -585q-20 -61 -48.5 -98.5t-68.5 -57t-93 -19.5q-39 0 -67 12zM389 749l-210 -127l-57 44l175 136z" />
    <glyph glyph-name="thorn" unicode="&#xfe;" horiz-adv-x="570" 
d="M520 294q0 -33 -6 -74t-22.5 -79.5t-46.5 -72.5t-78 -54t-105 -20q-49 0 -85 10v-195h-98v946h97v-249h4q17 19 51.5 35t81.5 16q44 0 82 -16t66 -48.5t43.5 -83t15.5 -115.5zM176 92q37 -15 84 -15q74 0 116.5 51.5t42.5 155.5q0 88 -34.5 139t-101.5 51
q-36 0 -65.5 -20.5t-41.5 -55.5v-306z" />
    <glyph glyph-name="ydieresis" unicode="&#xff;" horiz-adv-x="512" 
d="M30 -198l17 85q26 -11 54 -11q46 0 75 27.5t42 83.5l-201 563h109l81 -245q35 -107 58 -198h4q14 78 51 198l76 245h102l-191 -585q-20 -61 -48.5 -98.5t-68.5 -57t-93 -19.5q-39 0 -67 12zM93 712q0 24 17 41t41 17q25 0 42 -17t17 -41t-17 -41t-42 -17q-24 0 -41 17
t-17 41zM302 712q0 24 17 41t41 17q25 0 41.5 -16.5t16.5 -41.5q0 -24 -16.5 -41t-41.5 -17q-24 0 -41 17t-17 41z" />
    <glyph glyph-name="Amacron" unicode="&#x100;" horiz-adv-x="615" 
d="M232 701h150l224 -701h-107l-59 192h-268l-59 -192h-103zM261 477l-62 -198h214l-60 195q-3 11 -22.5 76t-22.5 81h-4q-2 -8 -8 -30.5t-19.5 -69.5t-15.5 -54zM462 815h-309v78h309v-78z" />
    <glyph glyph-name="amacron" unicode="&#x101;" horiz-adv-x="549" 
d="M354 133v109q-69 3 -115 -8t-69.5 -33t-23.5 -55t23.5 -55.5t63.5 -22.5q38 0 70.5 19t50.5 46zM251 559q196 0 196 -172v-240q0 -71 49 -71h15v-71q-19 -10 -42 -10q-38 0 -63.5 18t-36.5 47h-4q-58 -70 -157 -70q-27 0 -55.5 8t-51.5 27t-38 47.5t-15 64.5q0 45 21 80
t61 57t97 32.5t127 8.5v55q0 57 -27 81t-78 24q-34 0 -65 -15t-51 -50l-71 55q70 94 189 94zM428 660h-309v78h309v-78z" />
    <glyph glyph-name="Abreve" unicode="&#x102;" horiz-adv-x="615" 
d="M232 701h150l224 -701h-107l-59 192h-268l-59 -192h-103zM261 477l-62 -198h214l-60 195q-3 11 -22.5 76t-22.5 81h-4q-2 -8 -8 -30.5t-19.5 -69.5t-15.5 -54zM307 787q-65 0 -110 30t-69 76l65 39q6 -14 22 -32t40.5 -28.5t51.5 -10.5t51.5 10.5t40.5 28.5t22 32l65 -39
q-24 -46 -69 -76t-110 -30z" />
    <glyph glyph-name="abreve" unicode="&#x103;" horiz-adv-x="549" 
d="M354 133v109q-69 3 -115 -8t-69.5 -33t-23.5 -55t23.5 -55.5t63.5 -22.5q38 0 70.5 19t50.5 46zM251 559q196 0 196 -172v-240q0 -71 49 -71h15v-71q-19 -10 -42 -10q-38 0 -63.5 18t-36.5 47h-4q-58 -70 -157 -70q-27 0 -55.5 8t-51.5 27t-38 47.5t-15 64.5q0 45 21 80
t61 57t97 32.5t127 8.5v55q0 57 -27 81t-78 24q-34 0 -65 -15t-51 -50l-71 55q70 94 189 94zM274 632q-65 0 -110 30t-69 76l65 39q6 -14 22 -32t40.5 -28.5t51.5 -10.5t51.5 10.5t40.5 28.5t22 32l65 -39q-24 -46 -69 -76t-110 -30z" />
    <glyph glyph-name="Aogonek" unicode="&#x104;" horiz-adv-x="615" 
d="M623 -230q-13 -6 -37 -11t-51 -5q-65 0 -96 32t-31 78q0 32 19.5 69t69.5 72l-57 187h-268l-59 -192h-103l222 701h150l224 -701h-3q-29 -15 -57.5 -37.5t-42.5 -45t-14 -42.5q0 -53 65 -53q30 0 52 12zM261 477l-62 -198h214l-60 195q-3 11 -22.5 76t-22.5 81h-4
q-2 -8 -8 -30.5t-19.5 -69.5t-15.5 -54z" />
    <glyph glyph-name="aogonek" unicode="&#x105;" horiz-adv-x="549" 
d="M531 -224q-13 -6 -37 -11t-51 -5q-65 0 -96 32t-31 78q0 79 90 142q-26 16 -37 48h-4q-58 -70 -157 -70q-27 0 -55.5 8t-51.5 27t-38 47.5t-15 64.5q0 45 21 80t61 57t97 32.5t127 8.5v55q0 57 -27 81t-78 24q-34 0 -65 -15t-51 -50l-71 55q70 94 189 94q196 0 196 -172
v-240q0 -71 49 -71h15v-67l2 -2l-2 -1v-1l-11 -5q-54 -31 -78.5 -62.5t-24.5 -56.5q0 -53 65 -53q30 0 52 12zM354 133v109q-69 3 -115 -8t-69.5 -33t-23.5 -55t23.5 -55.5t63.5 -22.5q38 0 70.5 19t50.5 46z" />
    <glyph glyph-name="Cacute" unicode="&#x106;" horiz-adv-x="575" 
d="M483 904l-210 -127l-57 44l175 136zM57 345q0 84 19 152.5t56 116t92.5 72.5t125.5 25q60 0 110.5 -16.5t85.5 -48.5l-65 -76q-54 52 -139 52q-88 0 -135 -67t-47 -203q0 -132 48.5 -202t142.5 -70q86 0 133 47l56 -71q-25 -27 -77 -46.5t-124 -19.5t-126 25t-88.5 71.5
t-51 112t-16.5 146.5z" />
    <glyph glyph-name="cacute" unicode="&#x107;" horiz-adv-x="481" 
d="M400 749l-210 -127l-57 44l175 136zM49 268q0 72 17.5 128t50 92t76.5 54t96 18q60 0 103 -19t64 -45l-66 -69q-43 48 -104 48q-135 0 -135 -197q0 -203 135 -203q65 0 103 47l62 -64q-56 -67 -174 -67q-52 0 -94.5 16t-72 49.5t-45.5 86.5t-16 125z" />
    <glyph glyph-name="Ccircumflex" unicode="&#x108;" horiz-adv-x="575" 
d="M339 959l197 -124l-37 -59l-160 92l-161 -92l-35 59zM57 345q0 84 19 152.5t56 116t92.5 72.5t125.5 25q60 0 110.5 -16.5t85.5 -48.5l-65 -76q-54 52 -139 52q-88 0 -135 -67t-47 -203q0 -132 48.5 -202t142.5 -70q86 0 133 47l56 -71q-25 -27 -77 -46.5t-124 -19.5
t-126 25t-88.5 71.5t-51 112t-16.5 146.5z" />
    <glyph glyph-name="ccircumflex" unicode="&#x109;" horiz-adv-x="481" 
d="M268 804l197 -124l-37 -59l-160 92l-161 -92l-35 59zM49 268q0 72 17.5 128t50 92t76.5 54t96 18q60 0 103 -19t64 -45l-66 -69q-43 48 -104 48q-135 0 -135 -197q0 -203 135 -203q65 0 103 47l62 -64q-56 -67 -174 -67q-52 0 -94.5 16t-72 49.5t-45.5 86.5t-16 125z" />
    <glyph glyph-name="Cdotaccent" unicode="&#x10a;" horiz-adv-x="575" 
d="M57 345q0 84 19 152.5t56 116t92.5 72.5t125.5 25q60 0 110.5 -16.5t85.5 -48.5l-65 -76q-54 52 -139 52q-88 0 -135 -67t-47 -203q0 -132 48.5 -202t142.5 -70q86 0 133 47l56 -71q-25 -27 -77 -46.5t-124 -19.5t-126 25t-88.5 71.5t-51 112t-16.5 146.5zM271 865
q0 28 19.5 48t47.5 20q29 0 48.5 -20t19.5 -48t-19.5 -47.5t-48.5 -19.5q-28 0 -47.5 20t-19.5 47z" />
    <glyph glyph-name="cdotaccent" unicode="&#x10b;" horiz-adv-x="481" 
d="M49 268q0 72 17.5 128t50 92t76.5 54t96 18q60 0 103 -19t64 -45l-66 -69q-43 48 -104 48q-135 0 -135 -197q0 -203 135 -203q65 0 103 47l62 -64q-56 -67 -174 -67q-52 0 -94.5 16t-72 49.5t-45.5 86.5t-16 125zM212 710q0 28 19.5 48t47.5 20q29 0 48.5 -20t19.5 -48
t-19.5 -47.5t-48.5 -19.5q-28 0 -47.5 20t-19.5 47z" />
    <glyph glyph-name="Ccaron" unicode="&#x10c;" horiz-adv-x="575" 
d="M526 898l-197 -125l-196 125l35 59l161 -92l160 92zM57 345q0 84 19 152.5t56 116t92.5 72.5t125.5 25q60 0 110.5 -16.5t85.5 -48.5l-65 -76q-54 52 -139 52q-88 0 -135 -67t-47 -203q0 -132 48.5 -202t142.5 -70q86 0 133 47l56 -71q-25 -27 -77 -46.5t-124 -19.5
t-126 25t-88.5 71.5t-51 112t-16.5 146.5z" />
    <glyph glyph-name="ccaron" unicode="&#x10d;" horiz-adv-x="481" 
d="M474 743l-197 -125l-196 125l35 59l161 -92l160 92zM49 268q0 72 17.5 128t50 92t76.5 54t96 18q60 0 103 -19t64 -45l-66 -69q-43 48 -104 48q-135 0 -135 -197q0 -203 135 -203q65 0 103 47l62 -64q-56 -67 -174 -67q-52 0 -94.5 16t-72 49.5t-45.5 86.5t-16 125z" />
    <glyph glyph-name="Dcaron" unicode="&#x10e;" horiz-adv-x="654" 
d="M512 898l-197 -125l-196 125l35 59l161 -92l160 92zM91 0v701h193q161 0 237.5 -83.5t76.5 -257.5q0 -81 -17.5 -147.5t-55.5 -113.5t-98.5 -73t-142.5 -26h-193zM191 614v-527h89q112 0 163 63t51 199q0 90 -22.5 147.5t-69 87.5t-126.5 30h-85z" />
    <glyph glyph-name="dcaron" unicode="&#x10f;" horiz-adv-x="686" 
d="M579 482l-22 42q38 14 60 38.5t22 49.5q0 6 -3.5 18.5t-17.5 25t-51 31.5v6q0 28 18.5 47.5t48.5 19.5q36 0 58.5 -26.5t22.5 -69.5q0 -65 -42 -114.5t-94 -67.5zM393 541v218h98v-759h-75l-19 53h-4q-12 -17 -36 -33t-52.5 -23t-52.5 -7q-95 0 -149 65t-54 195
q0 75 19.5 133t54 95t81 55t100.5 18q43 0 89 -10zM277 72q41 0 71 20.5t46 55.5v304q-13 6 -37.5 10.5t-42.5 4.5q-81 0 -122.5 -49t-41.5 -158q0 -50 12.5 -95t43 -69t71.5 -24z" />
    <glyph glyph-name="Dcroat" unicode="&#x110;" horiz-adv-x="658" 
d="M97 0v318h-81v82h81v301h194q161 0 237 -83.5t76 -257.5q0 -81 -17.5 -147.5t-55 -113.5t-98 -73t-142.5 -26h-194zM347 318h-149v-231h89q112 0 163 63t51 199q0 90 -22.5 147.5t-69 87.5t-126.5 30h-85v-214h149v-82z" />
    <glyph glyph-name="dcroat" unicode="&#x111;" horiz-adv-x="571" 
d="M549 621h-58v-621l-70 -9l-26 62h-4q-16 -26 -51.5 -44.5t-85.5 -18.5q-95 0 -150 65t-55 196q0 56 13 111t48 101.5t87.5 67t106.5 20.5q49 0 89 -10v80h-171v63h171v75h98v-75h58v-63zM282 72q51 0 81.5 32t30.5 99v250q-13 6 -38 10t-43 4q-81 0 -122 -49t-41 -158
q0 -64 16 -105t44.5 -62t71.5 -21z" />
    <glyph glyph-name="Emacron" unicode="&#x112;" horiz-adv-x="538" 
d="M488 0h-397v701h384v-87h-284v-215h248v-87h-248v-225h297v-87zM422 815h-309v78h309v-78z" />
    <glyph glyph-name="emacron" unicode="&#x113;" horiz-adv-x="551" 
d="M435 119l44 -74q-69 -53 -182 -53q-123 0 -185.5 69t-62.5 216q0 69 18.5 123.5t51.5 89.5t77 52.5t94 17.5q98 0 152 -59t54 -159q0 -50 -5 -96h-344q4 -90 43.5 -131t118.5 -41q38 0 72.5 13.5t53.5 31.5zM284 479q-24 0 -48.5 -9t-43.5 -28.5t-30 -50.5t-13 -71h251
l1 27q0 64 -29 98t-88 34zM429 660h-309v78h309v-78z" />
    <glyph glyph-name="Ebreve" unicode="&#x114;" horiz-adv-x="538" 
d="M488 0h-397v701h384v-87h-284v-215h248v-87h-248v-225h297v-87zM268 787q-65 0 -110 30t-69 76l65 39q6 -14 22 -32t40.5 -28.5t51.5 -10.5t51.5 10.5t40.5 28.5t22 32l65 -39q-24 -46 -69 -76t-110 -30z" />
    <glyph glyph-name="ebreve" unicode="&#x115;" horiz-adv-x="551" 
d="M435 119l44 -74q-69 -53 -182 -53q-123 0 -185.5 69t-62.5 216q0 69 18.5 123.5t51.5 89.5t77 52.5t94 17.5q98 0 152 -59t54 -159q0 -50 -5 -96h-344q4 -90 43.5 -131t118.5 -41q38 0 72.5 13.5t53.5 31.5zM284 479q-24 0 -48.5 -9t-43.5 -28.5t-30 -50.5t-13 -71h251
l1 27q0 64 -29 98t-88 34zM275 632q-65 0 -110 30t-69 76l65 39q6 -14 22 -32t40.5 -28.5t51.5 -10.5t51.5 10.5t40.5 28.5t22 32l65 -39q-24 -46 -69 -76t-110 -30z" />
    <glyph glyph-name="Edotaccent" unicode="&#x116;" horiz-adv-x="538" 
d="M488 0h-397v701h384v-87h-284v-215h248v-87h-248v-225h297v-87zM200 865q0 28 19.5 48t47.5 20q29 0 48.5 -20t19.5 -48t-19.5 -47.5t-48.5 -19.5q-28 0 -47.5 20t-19.5 47z" />
    <glyph glyph-name="edotaccent" unicode="&#x117;" horiz-adv-x="551" 
d="M435 119l44 -74q-69 -53 -182 -53q-123 0 -185.5 69t-62.5 216q0 69 18.5 123.5t51.5 89.5t77 52.5t94 17.5q98 0 152 -59t54 -159q0 -50 -5 -96h-344q4 -90 43.5 -131t118.5 -41q38 0 72.5 13.5t53.5 31.5zM284 479q-24 0 -48.5 -9t-43.5 -28.5t-30 -50.5t-13 -71h251
l1 27q0 64 -29 98t-88 34zM207 710q0 28 19.5 48t47.5 20q29 0 48.5 -20t19.5 -48t-19.5 -47.5t-48.5 -19.5q-28 0 -47.5 20t-19.5 47z" />
    <glyph glyph-name="Eogonek" unicode="&#x118;" horiz-adv-x="538" 
d="M488 0h-2q-29 -15 -57.5 -37.5t-42.5 -45t-14 -42.5q0 -53 65 -53q30 0 52 12l17 -64q-13 -6 -37 -11t-51 -5q-65 0 -96 32t-31 78q0 75 82 136h-282v701h384v-87h-284v-215h248v-87h-248v-225h297v-87z" />
    <glyph glyph-name="eogonek" unicode="&#x119;" horiz-adv-x="551" 
d="M435 119l44 -74q-23 -18 -49 -29q-48 -26 -76.5 -58t-28.5 -62q0 -53 65 -53q30 0 52 12l17 -64q-13 -6 -37 -11t-51 -5q-65 0 -96 32t-31 78q0 59 48 107q-59 1 -105 18t-76.5 51.5t-46 88.5t-15.5 127q0 69 18.5 123.5t51.5 89.5t77 52.5t94 17.5q98 0 152 -59t54 -159
q0 -50 -5 -96h-344q4 -90 43.5 -131t118.5 -41q38 0 72.5 13.5t53.5 31.5zM284 479q-24 0 -48.5 -9t-43.5 -28.5t-30 -50.5t-13 -71h251l1 27q0 64 -29 98t-88 34z" />
    <glyph glyph-name="Ecaron" unicode="&#x11a;" horiz-adv-x="538" 
d="M465 898l-197 -125l-196 125l35 59l161 -92l160 92zM488 0h-397v701h384v-87h-284v-215h248v-87h-248v-225h297v-87z" />
    <glyph glyph-name="ecaron" unicode="&#x11b;" horiz-adv-x="551" 
d="M471 743l-197 -125l-196 125l35 59l161 -92l160 92zM435 119l44 -74q-69 -53 -182 -53q-123 0 -185.5 69t-62.5 216q0 69 18.5 123.5t51.5 89.5t77 52.5t94 17.5q98 0 152 -59t54 -159q0 -50 -5 -96h-344q4 -90 43.5 -131t118.5 -41q38 0 72.5 13.5t53.5 31.5zM284 479
q-24 0 -48.5 -9t-43.5 -28.5t-30 -50.5t-13 -71h251l1 27q0 64 -29 98t-88 34z" />
    <glyph glyph-name="Gcircumflex" unicode="&#x11c;" horiz-adv-x="642" 
d="M355 959l197 -124l-37 -59l-160 92l-161 -92l-35 59zM367 711q62 0 114.5 -16t86.5 -50l-65 -74q-54 50 -141 50q-100 0 -151 -68.5t-51 -195.5q0 -73 13 -127t38.5 -88t63 -50t86.5 -16q27 0 58 5.5t49 16.5v260h101v-305q-80 -63 -229 -63q-140 0 -211.5 90t-71.5 267
q0 91 23.5 161t66 114.5t99 66.5t121.5 22z" />
    <glyph glyph-name="gcircumflex" unicode="&#x11d;" horiz-adv-x="567" 
d="M297 804l197 -124l-37 -59l-160 92l-161 -92l-35 59zM488 526v-522q0 -106 -63 -162t-171 -56q-57 0 -109 15t-84 48l57 77q22 -25 58.5 -40.5t84.5 -15.5q68 0 99 32.5t31 102.5v44h-4q-17 -15 -50.5 -27.5t-75.5 -12.5q-68 0 -115 30t-72 86t-25 141q0 63 16.5 116.5
t50 92.5t85 60t116.5 21q108 0 171 -30zM390 459q-34 14 -81 14q-74 0 -117 -50.5t-43 -148.5q0 -182 136 -182q31 0 59 12.5t46 34.5v320z" />
    <glyph glyph-name="Gbreve" unicode="&#x11e;" horiz-adv-x="642" 
d="M367 711q62 0 114.5 -16t86.5 -50l-65 -74q-54 50 -141 50q-100 0 -151 -68.5t-51 -195.5q0 -73 13 -127t38.5 -88t63 -50t86.5 -16q27 0 58 5.5t49 16.5v260h101v-305q-80 -63 -229 -63q-140 0 -211.5 90t-71.5 267q0 91 23.5 161t66 114.5t99 66.5t121.5 22zM351 787
q-65 0 -110 30t-69 76l65 39q6 -14 22 -32t40.5 -28.5t51.5 -10.5t51.5 10.5t40.5 28.5t22 32l65 -39q-24 -46 -69 -76t-110 -30z" />
    <glyph glyph-name="gbreve" unicode="&#x11f;" horiz-adv-x="567" 
d="M488 526v-522q0 -106 -63 -162t-171 -56q-57 0 -109 15t-84 48l57 77q22 -25 58.5 -40.5t84.5 -15.5q68 0 99 32.5t31 102.5v44h-4q-17 -15 -50.5 -27.5t-75.5 -12.5q-68 0 -115 30t-72 86t-25 141q0 63 16.5 116.5t50 92.5t85 60t116.5 21q108 0 171 -30zM390 459
q-34 14 -81 14q-74 0 -117 -50.5t-43 -148.5q0 -182 136 -182q31 0 59 12.5t46 34.5v320zM298 632q-65 0 -110 30t-69 76l65 39q6 -14 22 -32t40.5 -28.5t51.5 -10.5t51.5 10.5t40.5 28.5t22 32l65 -39q-24 -46 -69 -76t-110 -30z" />
    <glyph glyph-name="Gdotaccent" unicode="&#x120;" horiz-adv-x="642" 
d="M367 711q62 0 114.5 -16t86.5 -50l-65 -74q-54 50 -141 50q-100 0 -151 -68.5t-51 -195.5q0 -73 13 -127t38.5 -88t63 -50t86.5 -16q27 0 58 5.5t49 16.5v260h101v-305q-80 -63 -229 -63q-140 0 -211.5 90t-71.5 267q0 91 23.5 161t66 114.5t99 66.5t121.5 22zM271 865
q0 28 19.5 48t47.5 20q29 0 48.5 -20t19.5 -48t-19.5 -47.5t-48.5 -19.5q-28 0 -47.5 20t-19.5 47z" />
    <glyph glyph-name="gdotaccent" unicode="&#x121;" horiz-adv-x="567" 
d="M488 526v-522q0 -106 -63 -162t-171 -56q-57 0 -109 15t-84 48l57 77q22 -25 58.5 -40.5t84.5 -15.5q68 0 99 32.5t31 102.5v44h-4q-17 -15 -50.5 -27.5t-75.5 -12.5q-68 0 -115 30t-72 86t-25 141q0 63 16.5 116.5t50 92.5t85 60t116.5 21q108 0 171 -30zM390 459
q-34 14 -81 14q-74 0 -117 -50.5t-43 -148.5q0 -182 136 -182q31 0 59 12.5t46 34.5v320zM232 708q0 28 19.5 48t47.5 20q29 0 48.5 -20t19.5 -48t-19.5 -47.5t-48.5 -19.5q-28 0 -47.5 20t-19.5 47z" />
    <glyph glyph-name="Gcommaaccent" unicode="&#x122;" horiz-adv-x="642" 
d="M298 -330l-22 36q31 13 47 33t16 42q0 18 -12.5 33t-51.5 35v5q0 25 17 42.5t43 17.5q32 0 52.5 -24t20.5 -63q0 -27 -12 -58.5t-39.5 -58t-58.5 -40.5zM367 711q62 0 114.5 -16t86.5 -50l-65 -74q-54 50 -141 50q-100 0 -151 -68.5t-51 -195.5q0 -73 13 -127t38.5 -88
t63 -50t86.5 -16q27 0 58 5.5t49 16.5v260h101v-305q-80 -63 -229 -63q-140 0 -211.5 90t-71.5 267q0 91 23.5 161t66 114.5t99 66.5t121.5 22z" />
    <glyph glyph-name="gcommaaccent" unicode="&#x123;" horiz-adv-x="567" 
d="M488 526v-522q0 -106 -63 -162t-171 -56q-57 0 -109 15t-84 48l57 77q22 -25 58.5 -40.5t84.5 -15.5q68 0 99 32.5t31 102.5v44h-4q-17 -15 -50.5 -27.5t-75.5 -12.5q-68 0 -115 30t-72 86t-25 141q0 63 16.5 116.5t50 92.5t85 60t116.5 21q108 0 171 -30zM390 459
q-34 14 -81 14q-74 0 -117 -50.5t-43 -148.5q0 -182 136 -182q31 0 59 12.5t46 34.5v320zM371 894l21 -40q-38 -14 -59 -38t-21 -49q0 -13 8.5 -30t62.5 -46v-4q0 -28 -19 -48t-49 -20q-35 0 -57.5 26.5t-22.5 69.5q0 42 18 77t50 62.5t68 39.5z" />
    <glyph glyph-name="Hcircumflex" unicode="&#x124;" horiz-adv-x="698" 
d="M348 959l197 -124l-37 -59l-160 92l-161 -92l-35 59zM506 701h101v-701h-101v310h-315v-310h-100v701h100v-304h315v304z" />
    <glyph glyph-name="hcircumflex" unicode="&#x125;" horiz-adv-x="585" 
d="M127 962l197 -124l-37 -59l-160 92l-161 -92l-35 59zM337 558q80 0 126 -47.5t46 -132.5v-378h-99v360q0 37 -14.5 64t-39 37t-47.5 10q-22 0 -48.5 -9t-49 -30.5t-33.5 -46.5v-385h-99v759h99v-268h4q29 33 71 50t84 17z" />
    <glyph glyph-name="Hbar" unicode="&#x126;" horiz-adv-x="712" 
d="M512 701h101v-123h71v-63h-71v-515h-101v310h-315v-310h-100v515h-70v63h70v123h100v-123h315v123zM197 397h315v118h-315v-118z" />
    <glyph glyph-name="hbar" unicode="&#x127;" horiz-adv-x="587" 
d="M338 558q80 0 126 -47.5t46 -132.5v-378h-99v360q0 37 -14.5 64t-39 37t-47.5 10q-22 0 -48.5 -9t-49 -30.5t-33.5 -46.5v-385h-99v621h-64v63h64v75h99v-75h164v-63h-164v-130h4q29 33 71 50t84 17z" />
    <glyph glyph-name="Itilde" unicode="&#x128;" horiz-adv-x="300" 
d="M100 0v701h101v-701h-101zM76 913q29 0 77 -18t67 -18q41 0 67 34l39 -60q-6 -11 -21.5 -24t-36.5 -20t-40 -7q-25 0 -74.5 18.5t-68.5 18.5q-44 0 -71 -33l-39 60q17 23 44.5 36t56.5 13z" />
    <glyph glyph-name="itilde" unicode="&#x129;" horiz-adv-x="291" 
d="M98 0v550h99v-550h-99zM71 758q29 0 77 -18t67 -18q41 0 67 34l39 -60q-6 -11 -21.5 -24t-36.5 -20t-40 -7q-25 0 -74.5 18.5t-68.5 18.5q-44 0 -71 -33l-39 60q17 23 44.5 36t56.5 13z" />
    <glyph glyph-name="imacron" unicode="&#x12b;" horiz-adv-x="291" 
d="M98 0v550h99v-550h-99zM300 660h-309v78h309v-78z" />
    <glyph glyph-name="Ibreve" unicode="&#x12c;" horiz-adv-x="300" 
d="M100 0v701h101v-701h-101zM151 787q-65 0 -110 30t-69 76l65 39q6 -14 22 -32t40.5 -28.5t51.5 -10.5t51.5 10.5t40.5 28.5t22 32l65 -39q-24 -46 -69 -76t-110 -30z" />
    <glyph glyph-name="Iogonek" unicode="&#x12e;" horiz-adv-x="300" 
d="M219 -230q-13 -6 -37 -11t-51 -5q-65 0 -96 32t-31 78q0 22 10 49t33.5 52t52.5 45v691h101v-701h-2q-29 -15 -57.5 -37.5t-42.5 -45t-14 -42.5q0 -53 65 -53q30 0 52 12z" />
    <glyph glyph-name="iogonek" unicode="&#x12f;" horiz-adv-x="291" 
d="M216 -230q-13 -6 -37 -11t-51 -5q-65 0 -96 32t-31 78q0 22 10 49t33.5 52t53.5 45v540h99v-548l1 -1l-1 -1h-1q-29 -15 -57.5 -37.5t-42.5 -45t-14 -42.5q0 -53 65 -53q30 0 52 12zM79 705q0 28 19 47.5t46 19.5q28 0 47 -19t19 -48q0 -27 -19 -45.5t-47 -18.5
q-27 0 -46 19t-19 45z" />
    <glyph glyph-name="Idotaccent" unicode="&#x130;" horiz-adv-x="300" 
d="M100 0v701h101v-701h-101zM84 865q0 28 19.5 48t47.5 20q29 0 48.5 -20t19.5 -48t-19.5 -47.5t-48.5 -19.5q-28 0 -47.5 20t-19.5 47z" />
    <glyph glyph-name="dotlessi" unicode="&#x131;" horiz-adv-x="291" 
d="M98 0v550h99v-550h-99z" />
    <glyph glyph-name="IJ" unicode="&#x132;" horiz-adv-x="701" 
d="M100 0v701h101v-701h-101zM305 11l32 91q17 -10 43 -17.5t52 -7.5q41 0 59 19t18 61v544h101v-549q0 -54 -22 -90.5t-61.5 -55.5t-96.5 -19q-42 0 -75.5 7.5t-49.5 16.5z" />
    <glyph glyph-name="ij" unicode="&#x133;" horiz-adv-x="551" 
d="M98 0v550h99v-550h-99zM79 705q0 28 19 47.5t46 19.5q28 0 47 -19t19 -48q0 -27 -19 -45.5t-47 -18.5q-27 0 -46 19t-19 45zM293 -221l-33 81q62 23 86 66.5t24 123.5v500h99v-503q0 -213 -176 -268zM351 705q0 28 19 47.5t46 19.5q28 0 47 -19t19 -48q0 -27 -19 -45.5
t-47 -18.5q-27 0 -46 19t-19 45z" />
    <glyph glyph-name="Jcircumflex" unicode="&#x134;" horiz-adv-x="404" 
d="M261 959l197 -124l-37 -59l-160 92l-161 -92l-35 59zM9 11l32 91q17 -10 43 -17.5t52 -7.5q41 0 59 19t18 61v544h101v-549q0 -54 -22 -90.5t-61.5 -55.5t-96.5 -19q-42 0 -75.5 7.5t-49.5 16.5z" />
    <glyph glyph-name="jcircumflex" unicode="&#x135;" horiz-adv-x="264" 
d="M6 -235l-33 81q39 14 62.5 35.5t35.5 58.5t12 95v515h99v-518q0 -213 -176 -267zM132 804l197 -124l-37 -59l-160 92l-161 -92l-35 59z" />
    <glyph glyph-name="Kcommaaccent" unicode="&#x136;" horiz-adv-x="598" 
d="M257 -330l-22 36q31 13 47 33t16 42q0 18 -12.5 33t-51.5 35v5q0 25 17 42.5t43 17.5q32 0 52.5 -24t20.5 -63q0 -27 -12 -58.5t-39.5 -58t-58.5 -40.5zM191 701v-701h-100v701h100zM211 353l236 348h117l-240 -348l262 -353h-127l-248 349v4z" />
    <glyph glyph-name="kcommaaccent" unicode="&#x137;" horiz-adv-x="522" 
d="M219 -330l-22 36q31 13 47 33t16 42q0 18 -12.5 33t-51.5 35v5q0 25 17 42.5t43 17.5q32 0 52.5 -24t20.5 -63q0 -27 -12 -58.5t-39.5 -58t-58.5 -40.5zM178 755v-755h-99v755h99zM189 285v4l184 261h119l-191 -259v-4l200 -287h-122z" />
    <glyph glyph-name="kgreenlandic" unicode="&#x138;" horiz-adv-x="522" 
d="M79 550h99v-550h-99v550zM194 267v4l179 279h117l-185 -276v-4l196 -270h-122z" />
    <glyph glyph-name="Lacute" unicode="&#x139;" horiz-adv-x="496" 
d="M374 904l-210 -127l-57 44l175 136zM91 701h100v-614h289v-87h-389v701z" />
    <glyph glyph-name="lacute" unicode="&#x13a;" horiz-adv-x="299" 
d="M265 912l-210 -127l-57 44l175 136zM83 759h98v-616q0 -34 13 -49.5t41 -15.5q15 0 39 8v-81q-32 -13 -70 -13q-58 0 -89.5 33.5t-31.5 91.5v642z" />
    <glyph glyph-name="Lcommaaccent" unicode="&#x13b;" horiz-adv-x="496" 
d="M206 -330l-22 36q31 13 47 33t16 42q0 18 -12.5 33t-51.5 35v5q0 25 17 42.5t43 17.5q32 0 52.5 -24t20.5 -63q0 -27 -12 -58.5t-39.5 -58t-58.5 -40.5zM91 701h100v-614h289v-87h-389v701z" />
    <glyph glyph-name="lcommaaccent" unicode="&#x13c;" horiz-adv-x="299" 
d="M117 -330l-22 36q31 13 47 33t16 42q0 18 -12.5 33t-51.5 35v5q0 25 17 42.5t43 17.5q32 0 52.5 -24t20.5 -63q0 -27 -12 -58.5t-39.5 -58t-58.5 -40.5zM83 759h98v-616q0 -34 13 -49.5t41 -15.5q15 0 39 8v-81q-32 -13 -70 -13q-58 0 -89.5 33.5t-31.5 91.5v642z" />
    <glyph glyph-name="Lcaron" unicode="&#x13d;" horiz-adv-x="496" 
d="M282 463l-22 42q38 14 60 38.5t22 49.5q0 6 -3.5 18.5t-17.5 25t-51 31.5v6q0 28 18.5 47.5t48.5 19.5q36 0 58.5 -26.5t22.5 -69.5q0 -65 -42 -114.5t-94 -67.5zM91 701h100v-614h289v-87h-389v701z" />
    <glyph glyph-name="lcaron" unicode="&#x13e;" horiz-adv-x="403" 
d="M281 480l-22 42q38 14 60 38.5t22 49.5q0 6 -3.5 18.5t-17.5 25t-51 31.5v6q0 28 18.5 47.5t48.5 19.5q36 0 58.5 -26.5t22.5 -69.5q0 -65 -42 -114.5t-94 -67.5zM83 759h98v-616q0 -34 13 -49.5t41 -15.5q15 0 39 8v-81q-32 -13 -70 -13q-58 0 -89.5 33.5t-31.5 91.5
v642z" />
    <glyph glyph-name="Ldot" unicode="&#x13f;" horiz-adv-x="496" 
d="M91 701h100v-614h289v-87h-389v701zM298 381q0 29 19.5 49.5t47.5 20.5q29 0 49 -20t20 -50q0 -28 -20 -47.5t-49 -19.5q-28 0 -47.5 20t-19.5 47z" />
    <glyph glyph-name="ldot" unicode="&#x140;" horiz-adv-x="546" 
d="M83 759h98v-616q0 -34 13 -49.5t41 -15.5q15 0 39 8v-81q-32 -13 -70 -13q-58 0 -89.5 33.5t-31.5 91.5v642zM285 398q0 29 19.5 49.5t47.5 20.5q29 0 49 -20t20 -50q0 -28 -20 -47.5t-49 -19.5q-28 0 -47.5 20t-19.5 47z" />
    <glyph glyph-name="Lslash" unicode="&#x141;" horiz-adv-x="501" 
d="M96 701h100v-289l150 100v-80l-150 -101v-244h289v-87h-389v264l-66 -44v81l66 44v356z" />
    <glyph glyph-name="lslash" unicode="&#x142;" horiz-adv-x="313" 
d="M86 759h98v-301l97 72v-80l-97 -72v-235q0 -34 13 -49.5t41 -15.5q15 0 39 8v-81q-32 -13 -70 -13q-58 0 -89.5 33.5t-31.5 91.5v188l-58 -43v80l58 43v374z" />
    <glyph glyph-name="Nacute" unicode="&#x143;" horiz-adv-x="708" 
d="M487 904l-210 -127l-57 44l175 136zM189 578h-6q0 -2 0.5 -10.5t2.5 -59t2 -133.5v-375h-97v701h133l209 -395l4 -8t38.5 -74.5t43.5 -91.5h6q-3 43 -3 211v358h95v-701h-130l-214 403q-73 145 -84 175z" />
    <glyph glyph-name="nacute" unicode="&#x144;" horiz-adv-x="585" 
d="M425 749l-210 -127l-57 44l175 136zM509 380v-380h-99v358q0 56 -27.5 87t-78.5 31q-44 0 -78 -25.5t-48 -63.5v-387h-99v550h76l20 -56h4q14 17 40.5 34.5t57 25.5t56.5 8q61 0 99.5 -23.5t57 -63t19.5 -95.5z" />
    <glyph glyph-name="Ncommaaccent" unicode="&#x145;" horiz-adv-x="708" 
d="M313 -330l-22 36q30 13 46.5 33.5t16.5 41.5q0 12 -8.5 27.5t-56.5 40.5v5q0 26 17 43t44 17q32 0 52.5 -24t20.5 -63q0 -27 -12 -58.5t-39.5 -58t-58.5 -40.5zM189 578h-6q0 -2 0.5 -10.5t2.5 -59t2 -133.5v-375h-97v701h133l209 -395l4 -8t38.5 -74.5t43.5 -91.5h6
q-3 43 -3 211v358h95v-701h-130l-214 403q-73 145 -84 175z" />
    <glyph glyph-name="ncommaaccent" unicode="&#x146;" horiz-adv-x="585" 
d="M251 -330l-22 36q31 13 47 33t16 42q0 18 -12.5 33t-51.5 35v5q0 25 17 42.5t43 17.5q32 0 52.5 -24t20.5 -63q0 -27 -12 -58.5t-39.5 -58t-58.5 -40.5zM509 380v-380h-99v358q0 56 -27.5 87t-78.5 31q-44 0 -78 -25.5t-48 -63.5v-387h-99v550h76l20 -56h4
q14 17 40.5 34.5t57 25.5t56.5 8q61 0 99.5 -23.5t57 -63t19.5 -95.5z" />
    <glyph glyph-name="Ncaron" unicode="&#x147;" horiz-adv-x="708" 
d="M550 898l-197 -125l-196 125l35 59l161 -92l160 92zM189 578h-6q0 -2 0.5 -10.5t2.5 -59t2 -133.5v-375h-97v701h133l209 -395l4 -8t38.5 -74.5t43.5 -91.5h6q-3 43 -3 211v358h95v-701h-130l-214 403q-73 145 -84 175z" />
    <glyph glyph-name="ncaron" unicode="&#x148;" horiz-adv-x="585" 
d="M488 743l-197 -125l-196 125l35 59l161 -92l160 92zM509 380v-380h-99v358q0 56 -27.5 87t-78.5 31q-44 0 -78 -25.5t-48 -63.5v-387h-99v550h76l20 -56h4q14 17 40.5 34.5t57 25.5t56.5 8q61 0 99.5 -23.5t57 -63t19.5 -95.5z" />
    <glyph glyph-name="napostrophe" unicode="&#x149;" horiz-adv-x="726" 
d="M21 440l-23 45q41 15 64 41t23 53q0 14 -8 29t-23 25t-46 27v6q0 30 20 51t52 21q38 0 62.5 -28.5t24.5 -74.5q0 -36 -16 -75.5t-53.5 -72.5t-76.5 -47zM650 380v-380h-99v358q0 56 -27.5 87t-78.5 31q-44 0 -78 -25.5t-48 -63.5v-387h-99v550h76l20 -56h4
q14 17 40.5 34.5t57 25.5t56.5 8q61 0 99.5 -23.5t57 -63t19.5 -95.5z" />
    <glyph glyph-name="Eng" unicode="&#x14a;" horiz-adv-x="707" 
d="M189 579h-7l6 -205v-374h-97v701h134l212 -401l80 -168h7l-4 190v379h96v-669q0 -214 -176 -267l-33 81q36 13 58.5 32t35.5 48.5t16 73.5h-33l-213 403z" />
    <glyph glyph-name="eng" unicode="&#x14b;" horiz-adv-x="587" 
d="M410 357q0 56 -27.5 87.5t-78.5 31.5q-35 0 -64.5 -16t-44 -41t-17.5 -48v-371h-99v551l73 5l24 -62h4q14 17 41 34.5t57 25.5t55 8q61 0 99.5 -23.5t57 -63t19.5 -95.5v-348q0 -213 -177 -267l-32 81q39 14 62.5 35.5t35.5 58.5t12 95v322z" />
    <glyph glyph-name="Omacron" unicode="&#x14c;" horiz-adv-x="679" 
d="M493 815h-309v78h309v-78zM165 355q0 -94 19 -154t56.5 -91.5t100.5 -31.5q62 0 98.5 30t54.5 88.5t18 150.5q0 93 -18.5 153t-56.5 91.5t-101 31.5q-60 0 -97 -29.5t-55.5 -88t-18.5 -150.5zM616 354q0 -93 -20 -163t-57 -114.5t-89 -65.5t-116 -21t-114.5 20
t-85.5 62.5t-53.5 111.5t-18.5 163q0 45 6.5 97.5t24.5 99.5t50.5 85.5t84 60t115.5 21.5q273 0 273 -357z" />
    <glyph glyph-name="omacron" unicode="&#x14d;" horiz-adv-x="568" 
d="M438 660h-309v78h309v-78zM151 279q0 -104 32.5 -155t103.5 -51q70 0 100 48t30 151q0 105 -32.5 155.5t-103.5 50.5q-68 0 -99 -48.5t-31 -150.5zM281 -9q-47 0 -90.5 13.5t-75 46t-49 86.5t-17.5 136q0 99 28.5 161.5t80 94t129.5 31.5q47 0 90.5 -13.5t75 -46
t49 -86.5t17.5 -136q0 -99 -28.5 -161.5t-80 -94t-129.5 -31.5z" />
    <glyph glyph-name="Obreve" unicode="&#x14e;" horiz-adv-x="679" 
d="M165 355q0 -94 19 -154t56.5 -91.5t100.5 -31.5q62 0 98.5 30t54.5 88.5t18 150.5q0 93 -18.5 153t-56.5 91.5t-101 31.5q-60 0 -97 -29.5t-55.5 -88t-18.5 -150.5zM616 354q0 -93 -20 -163t-57 -114.5t-89 -65.5t-116 -21t-114.5 20t-85.5 62.5t-53.5 111.5t-18.5 163
q0 45 6.5 97.5t24.5 99.5t50.5 85.5t84 60t115.5 21.5q273 0 273 -357zM339 787q-65 0 -110 30t-69 76l65 39q6 -14 22 -32t40.5 -28.5t51.5 -10.5t51.5 10.5t40.5 28.5t22 32l65 -39q-24 -46 -69 -76t-110 -30z" />
    <glyph glyph-name="obreve" unicode="&#x14f;" horiz-adv-x="568" 
d="M151 279q0 -104 32.5 -155t103.5 -51q70 0 100 48t30 151q0 105 -32.5 155.5t-103.5 50.5q-68 0 -99 -48.5t-31 -150.5zM281 -9q-47 0 -90.5 13.5t-75 46t-49 86.5t-17.5 136q0 99 28.5 161.5t80 94t129.5 31.5q47 0 90.5 -13.5t75 -46t49 -86.5t17.5 -136
q0 -99 -28.5 -161.5t-80 -94t-129.5 -31.5zM284 632q-65 0 -110 30t-69 76l65 39q6 -14 22 -32t40.5 -28.5t51.5 -10.5t51.5 10.5t40.5 28.5t22 32l65 -39q-24 -46 -69 -76t-110 -30z" />
    <glyph glyph-name="Ohungarumlaut" unicode="&#x150;" horiz-adv-x="679" 
d="M575 881l-209 -114l-43 56l194 124zM348 902l-195 -136l-51 50l177 145zM165 355q0 -94 19 -154t56.5 -91.5t100.5 -31.5q62 0 98.5 30t54.5 88.5t18 150.5q0 93 -18.5 153t-56.5 91.5t-101 31.5q-60 0 -97 -29.5t-55.5 -88t-18.5 -150.5zM616 354q0 -93 -20 -163
t-57 -114.5t-89 -65.5t-116 -21t-114.5 20t-85.5 62.5t-53.5 111.5t-18.5 163q0 45 6.5 97.5t24.5 99.5t50.5 85.5t84 60t115.5 21.5q273 0 273 -357z" />
    <glyph glyph-name="ohungarumlaut" unicode="&#x151;" horiz-adv-x="568" 
d="M520 726l-209 -114l-43 56l194 124zM293 747l-195 -136l-51 50l177 145zM151 279q0 -104 32.5 -155t103.5 -51q70 0 100 48t30 151q0 105 -32.5 155.5t-103.5 50.5q-68 0 -99 -48.5t-31 -150.5zM281 -9q-47 0 -90.5 13.5t-75 46t-49 86.5t-17.5 136q0 99 28.5 161.5
t80 94t129.5 31.5q47 0 90.5 -13.5t75 -46t49 -86.5t17.5 -136q0 -99 -28.5 -161.5t-80 -94t-129.5 -31.5z" />
    <glyph glyph-name="OE" unicode="&#x152;" horiz-adv-x="971" 
d="M922 0h-389v80h-2q-25 -42 -74.5 -66t-121.5 -24q-278 0 -278 357q0 93 20.5 163t58.5 114t91 65.5t117 21.5q51 0 90.5 -12.5t62 -32t34.5 -37.5h2v72h375v-87h-286v-215h250v-87h-250v-225h300v-87zM160 355q0 -277 183 -277q63 0 101 30t57 88.5t19 150.5
q0 276 -182 276q-63 0 -101 -29.5t-57.5 -88t-19.5 -150.5z" />
    <glyph glyph-name="oe" unicode="&#x153;" horiz-adv-x="919" 
d="M469 90h-4q-54 -99 -184 -99q-47 0 -90.5 13.5t-75 46t-49 86.5t-17.5 136q0 99 28 161.5t79.5 94t129.5 31.5q132 0 180 -97h5q29 48 77 72.5t108 24.5q100 0 155 -59.5t55 -161.5q0 -49 -8 -95h-342v-6q8 -86 48.5 -125t114.5 -39q80 0 134 52l49 -72q-30 -28 -79 -45
t-115 -17q-145 0 -199 98zM151 279q0 -104 33 -155t104 -51t101 48.5t30 155.5q0 201 -139 201q-69 0 -99 -48.5t-30 -150.5zM648 479q-52 0 -87.5 -36t-43.5 -116l-1 -7h251l1 26q0 41 -13.5 72.5t-42.5 46t-64 14.5z" />
    <glyph glyph-name="Racute" unicode="&#x154;" horiz-adv-x="600" 
d="M433 904l-210 -127l-57 44l175 136zM91 701h191q236 0 236 -200q0 -31 -8 -63.5t-30 -62t-54 -46t-63 -20.5v-4q23 -11 43.5 -32.5t43.5 -61.5l123 -211h-121l-124 225q-16 30 -39 43.5t-57 13.5h-41v-282h-100v701zM191 614v-248h81q143 0 143 126q0 64 -37 93t-110 29
h-77z" />
    <glyph glyph-name="racute" unicode="&#x155;" horiz-adv-x="369" 
d="M319 749l-210 -127l-57 44l175 136zM372 555v-101q-32 8 -62 8q-39 0 -76 -16.5t-57 -46.5v-399h-98v550h76l21 -67h4q19 34 55.5 55.5t83.5 21.5q33 0 53 -5z" />
    <glyph glyph-name="Rcommaaccent" unicode="&#x156;" horiz-adv-x="600" 
d="M260 -330l-21 36q30 13 46 33t16 42q0 18 -12.5 33t-51.5 35v5q0 25 17 42.5t43 17.5q32 0 53 -24t21 -63q0 -27 -12 -58.5t-40 -58t-59 -40.5zM91 701h191q236 0 236 -200q0 -31 -8 -63.5t-30 -62t-54 -46t-63 -20.5v-4q23 -11 43.5 -32.5t43.5 -61.5l123 -211h-121
l-124 225q-16 30 -39 43.5t-57 13.5h-41v-282h-100v701zM191 614v-248h81q143 0 143 126q0 64 -37 93t-110 29h-77z" />
    <glyph glyph-name="rcommaaccent" unicode="&#x157;" horiz-adv-x="369" 
d="M86 -330l-22 36q30 13 46.5 33.5t16.5 41.5q0 12 -8.5 27.5t-56.5 40.5v5q0 26 17 43t44 17q32 0 52.5 -24t20.5 -63q0 -27 -12 -58.5t-39.5 -58t-58.5 -40.5zM372 555v-101q-32 8 -62 8q-39 0 -76 -16.5t-57 -46.5v-399h-98v550h76l21 -67h4q19 34 55.5 55.5t83.5 21.5
q33 0 53 -5z" />
    <glyph glyph-name="Rcaron" unicode="&#x158;" horiz-adv-x="600" 
d="M496 898l-197 -125l-196 125l35 59l161 -92l160 92zM91 701h191q236 0 236 -200q0 -31 -8 -63.5t-30 -62t-54 -46t-63 -20.5v-4q23 -11 43.5 -32.5t43.5 -61.5l123 -211h-121l-124 225q-16 30 -39 43.5t-57 13.5h-41v-282h-100v701zM191 614v-248h81q143 0 143 126
q0 64 -37 93t-110 29h-77z" />
    <glyph glyph-name="rcaron" unicode="&#x159;" horiz-adv-x="369" 
d="M394 743l-197 -125l-196 125l35 59l161 -92l160 92zM372 555v-101q-32 8 -62 8q-39 0 -76 -16.5t-57 -46.5v-399h-98v550h76l21 -67h4q19 34 55.5 55.5t83.5 21.5q33 0 53 -5z" />
    <glyph glyph-name="Sacute" unicode="&#x15a;" horiz-adv-x="544" 
d="M405 904l-210 -127l-57 44l175 136zM267 79q61 0 95 29t34 73q0 20 -9 38.5t-33.5 37.5t-100.5 53.5t-103.5 55t-43.5 39t-28 46t-12 66.5q0 40 14.5 71.5t38 56.5t68 45.5t104.5 20.5q61 0 111 -19.5t79 -46.5l-62 -77q-61 53 -135 53q-53 0 -84.5 -27.5t-31.5 -69.5
q0 -38 28.5 -65t99.5 -59.5t96 -47.5t43.5 -30.5t33 -35t22.5 -44.5t8 -55q0 -39 -16 -75t-47 -63.5t-77 -43t-103 -15.5q-38 0 -83 8.5t-83 28t-61 40.5l59 83q85 -71 179 -71z" />
    <glyph glyph-name="sacute" unicode="&#x15b;" horiz-adv-x="480" 
d="M374 749l-210 -127l-57 44l175 136zM331 148q0 10 -4 21t-13.5 21t-27 19.5t-72 29.5t-77 34t-39 29t-28 40t-11.5 59q0 23 8.5 49t30.5 50t60.5 41.5t93.5 17.5t100 -17.5t72 -46.5l-64 -66q-19 20 -49 33.5t-62 13.5q-21 0 -43 -7t-35.5 -24.5t-13.5 -38.5
q0 -24 19 -43.5t80.5 -42t91 -38.5t46 -34t26.5 -40.5t10 -55.5q0 -45 -26 -82t-70.5 -58t-106.5 -21q-34 0 -74 8t-74.5 26t-54.5 39l60 72q26 -26 65 -44.5t83 -18.5q48 0 73.5 21.5t25.5 53.5z" />
    <glyph glyph-name="Scircumflex" unicode="&#x15c;" horiz-adv-x="544" 
d="M271 959l197 -124l-37 -59l-160 92l-161 -92l-35 59zM267 79q61 0 95 29t34 73q0 20 -9 38.5t-33.5 37.5t-100.5 53.5t-103.5 55t-43.5 39t-28 46t-12 66.5q0 40 14.5 71.5t38 56.5t68 45.5t104.5 20.5q61 0 111 -19.5t79 -46.5l-62 -77q-61 53 -135 53
q-53 0 -84.5 -27.5t-31.5 -69.5q0 -38 28.5 -65t99.5 -59.5t96 -47.5t43.5 -30.5t33 -35t22.5 -44.5t8 -55q0 -39 -16 -75t-47 -63.5t-77 -43t-103 -15.5q-38 0 -83 8.5t-83 28t-61 40.5l59 83q85 -71 179 -71z" />
    <glyph glyph-name="scircumflex" unicode="&#x15d;" horiz-adv-x="480" 
d="M240 804l197 -124l-37 -59l-160 92l-161 -92l-35 59zM331 148q0 10 -4 21t-13.5 21t-27 19.5t-72 29.5t-77 34t-39 29t-28 40t-11.5 59q0 23 8.5 49t30.5 50t60.5 41.5t93.5 17.5t100 -17.5t72 -46.5l-64 -66q-19 20 -49 33.5t-62 13.5q-21 0 -43 -7t-35.5 -24.5
t-13.5 -38.5q0 -24 19 -43.5t80.5 -42t91 -38.5t46 -34t26.5 -40.5t10 -55.5q0 -45 -26 -82t-70.5 -58t-106.5 -21q-34 0 -74 8t-74.5 26t-54.5 39l60 72q26 -26 65 -44.5t83 -18.5q48 0 73.5 21.5t25.5 53.5z" />
    <glyph glyph-name="Scedilla" unicode="&#x15e;" horiz-adv-x="544" 
d="M267 79q61 0 95 29t34 73q0 20 -9 38.5t-33.5 37.5t-100.5 53.5t-103.5 55t-43.5 39t-28 46t-12 66.5q0 40 14.5 71.5t38 56.5t68 45.5t104.5 20.5q61 0 111 -19.5t79 -46.5l-62 -77q-61 53 -135 53q-53 0 -84.5 -27.5t-31.5 -69.5q0 -38 28.5 -65t99.5 -59.5t96 -47.5
t43.5 -30.5t33 -35t22.5 -44.5t8 -55q0 -39 -16 -75t-47 -63.5t-77 -43t-103 -15.5q-38 0 -83 8.5t-83 28t-61 40.5l59 83q85 -71 179 -71zM341 -116q0 -29 -14 -56.5t-40 -45t-54 -26.5l-31 51q62 28 62 77q0 32 -25 61v4h84q8 -11 13 -29.5t5 -35.5z" />
    <glyph glyph-name="scedilla" unicode="&#x15f;" horiz-adv-x="480" 
d="M331 148q0 10 -4 21t-13.5 21t-27 19.5t-72 29.5t-77 34t-39 29t-28 40t-11.5 59q0 23 8.5 49t30.5 50t60.5 41.5t93.5 17.5t100 -17.5t72 -46.5l-64 -66q-19 20 -49 33.5t-62 13.5q-21 0 -43 -7t-35.5 -24.5t-13.5 -38.5q0 -24 19 -43.5t80.5 -42t91 -38.5t46 -34
t26.5 -40.5t10 -55.5q0 -45 -26 -82t-70.5 -58t-106.5 -21q-34 0 -74 8t-74.5 26t-54.5 39l60 72q26 -26 65 -44.5t83 -18.5q48 0 73.5 21.5t25.5 53.5zM310 -116q0 -29 -14 -56.5t-40 -45t-54 -26.5l-31 51q62 28 62 77q0 32 -25 61v4h84q8 -11 13 -29.5t5 -35.5z" />
    <glyph glyph-name="Scaron" unicode="&#x160;" horiz-adv-x="544" 
d="M468 898l-197 -125l-196 125l35 59l161 -92l160 92zM267 79q61 0 95 29t34 73q0 20 -9 38.5t-33.5 37.5t-100.5 53.5t-103.5 55t-43.5 39t-28 46t-12 66.5q0 40 14.5 71.5t38 56.5t68 45.5t104.5 20.5q61 0 111 -19.5t79 -46.5l-62 -77q-61 53 -135 53q-53 0 -84.5 -27.5
t-31.5 -69.5q0 -38 28.5 -65t99.5 -59.5t96 -47.5t43.5 -30.5t33 -35t22.5 -44.5t8 -55q0 -39 -16 -75t-47 -63.5t-77 -43t-103 -15.5q-38 0 -83 8.5t-83 28t-61 40.5l59 83q85 -71 179 -71z" />
    <glyph glyph-name="scaron" unicode="&#x161;" horiz-adv-x="480" 
d="M437 743l-197 -125l-196 125l35 59l161 -92l160 92zM331 148q0 10 -4 21t-13.5 21t-27 19.5t-72 29.5t-77 34t-39 29t-28 40t-11.5 59q0 23 8.5 49t30.5 50t60.5 41.5t93.5 17.5t100 -17.5t72 -46.5l-64 -66q-19 20 -49 33.5t-62 13.5q-21 0 -43 -7t-35.5 -24.5
t-13.5 -38.5q0 -24 19 -43.5t80.5 -42t91 -38.5t46 -34t26.5 -40.5t10 -55.5q0 -45 -26 -82t-70.5 -58t-106.5 -21q-34 0 -74 8t-74.5 26t-54.5 39l60 72q26 -26 65 -44.5t83 -18.5q48 0 73.5 21.5t25.5 53.5z" />
    <glyph glyph-name="Tcommaaccent" unicode="&#x162;" horiz-adv-x="486" 
d="M201 -330l-22 36q31 13 47 33t16 42q0 18 -12.5 33t-51.5 35v5q0 25 17 42.5t43 17.5q32 0 52.5 -24t20.5 -63q0 -27 -12 -58.5t-39.5 -58t-58.5 -40.5zM193 0v614h-184v87h468v-87h-183v-614h-101z" />
    <glyph glyph-name="tcommaaccent" unicode="&#x163;" horiz-adv-x="387" 
d="M152 -330l-22 36q30 13 46.5 33.5t16.5 41.5q0 12 -8.5 27.5t-56.5 40.5v5q0 26 17 43t44 17q32 0 52.5 -24t20.5 -63q0 -27 -12 -58.5t-39.5 -58t-58.5 -40.5zM241 -5q-147 0 -147 160v317h-78v62l78 20l32 139h66v-143h147v-78h-147v-315q0 -39 19.5 -58.5t53.5 -19.5
q52 0 82 21l26 -77q-43 -28 -132 -28z" />
    <glyph glyph-name="Tcaron" unicode="&#x164;" horiz-adv-x="486" 
d="M440 898l-197 -125l-196 125l35 59l161 -92l160 92zM193 0v614h-184v87h468v-87h-183v-614h-101z" />
    <glyph glyph-name="tcaron" unicode="&#x165;" horiz-adv-x="592" 
d="M272 598l-22 42q38 14 60 38.5t22 49.5q0 6 -3.5 18.5t-17.5 25t-51 31.5v6q0 28 18.5 47.5t48.5 19.5q36 0 58.5 -26.5t22.5 -69.5q0 -65 -42 -114.5t-94 -67.5zM241 -5q-147 0 -147 160v317h-78v62l78 20l32 139h66v-143h147v-78h-147v-315q0 -39 19.5 -58.5
t53.5 -19.5q52 0 82 21l26 -77q-43 -28 -132 -28z" />
    <glyph glyph-name="Tbar" unicode="&#x166;" horiz-adv-x="491" 
d="M195 0v314h-115v76h115v224h-184v87h468v-87h-183v-224h115v-76h-115v-314h-101z" />
    <glyph glyph-name="tbar" unicode="&#x167;" horiz-adv-x="408" 
d="M106 364v108h-78v62l78 20l32 139h66v-143h143v-78h-143v-112h143v-78h-143v-125q0 -39 19.5 -58.5t53.5 -19.5q49 0 80 20l28 -76q-43 -28 -132 -28q-147 0 -147 160v127h-78v62z" />
    <glyph glyph-name="Utilde" unicode="&#x168;" horiz-adv-x="686" 
d="M347 78q150 0 150 162v461h101v-448q0 -66 -19 -116t-54 -82.5t-83.5 -48.5t-107.5 -16q-60 0 -106.5 17t-77.5 49.5t-46.5 78t-15.5 100.5v466h100v-449q0 -87 41 -130.5t118 -43.5zM267 913q29 0 77 -18t67 -18q41 0 67 34l39 -60q-6 -11 -21.5 -24t-36.5 -20t-40 -7
q-25 0 -74.5 18.5t-68.5 18.5q-44 0 -71 -33l-39 60q17 23 44.5 36t56.5 13z" />
    <glyph glyph-name="utilde" unicode="&#x169;" horiz-adv-x="586" 
d="M76 176v374h99v-358q0 -60 27.5 -90.5t80.5 -30.5q40 0 70 18t42.5 45t13.5 50v366h99v-550h-81l-16 55h-4q-28 -34 -69.5 -50t-84.5 -16q-174 0 -177 187zM218 758q29 0 77 -18t67 -18q41 0 67 34l39 -60q-6 -11 -21.5 -24t-36.5 -20t-40 -7q-25 0 -74.5 18.5
t-68.5 18.5q-44 0 -71 -33l-39 60q17 23 44.5 36t56.5 13z" />
    <glyph glyph-name="Umacron" unicode="&#x16a;" horiz-adv-x="686" 
d="M347 78q150 0 150 162v461h101v-448q0 -66 -19 -116t-54 -82.5t-83.5 -48.5t-107.5 -16q-60 0 -106.5 17t-77.5 49.5t-46.5 78t-15.5 100.5v466h100v-449q0 -87 41 -130.5t118 -43.5zM497 815h-309v78h309v-78z" />
    <glyph glyph-name="umacron" unicode="&#x16b;" horiz-adv-x="586" 
d="M76 176v374h99v-358q0 -60 27.5 -90.5t80.5 -30.5q40 0 70 18t42.5 45t13.5 50v366h99v-550h-81l-16 55h-4q-28 -34 -69.5 -50t-84.5 -16q-174 0 -177 187zM447 660h-309v78h309v-78z" />
    <glyph glyph-name="Ubreve" unicode="&#x16c;" horiz-adv-x="686" 
d="M347 78q150 0 150 162v461h101v-448q0 -66 -19 -116t-54 -82.5t-83.5 -48.5t-107.5 -16q-60 0 -106.5 17t-77.5 49.5t-46.5 78t-15.5 100.5v466h100v-449q0 -87 41 -130.5t118 -43.5zM342 787q-65 0 -110 30t-69 76l65 39q6 -14 22 -32t40.5 -28.5t51.5 -10.5t51.5 10.5
t40.5 28.5t22 32l65 -39q-24 -46 -69 -76t-110 -30z" />
    <glyph glyph-name="ubreve" unicode="&#x16d;" horiz-adv-x="586" 
d="M76 176v374h99v-358q0 -60 27.5 -90.5t80.5 -30.5q40 0 70 18t42.5 45t13.5 50v366h99v-550h-81l-16 55h-4q-28 -34 -69.5 -50t-84.5 -16q-174 0 -177 187zM293 632q-65 0 -110 30t-69 76l65 39q6 -14 22 -32t40.5 -28.5t51.5 -10.5t51.5 10.5t40.5 28.5t22 32l65 -39
q-24 -46 -69 -76t-110 -30z" />
    <glyph glyph-name="Uring" unicode="&#x16e;" horiz-adv-x="686" 
d="M226 867q0 50 32.5 82t84.5 32q24 0 51 -10t45 -36.5t18 -61.5q0 -36 -18.5 -64.5t-46.5 -39.5t-52 -11t-51 10t-45 36.5t-18 62.5zM399 869q0 26 -15.5 42.5t-43.5 16.5q-26 0 -41 -15.5t-15 -41.5t15.5 -42.5t42.5 -16.5t42 15.5t15 41.5zM347 78q150 0 150 162v461
h101v-448q0 -66 -19 -116t-54 -82.5t-83.5 -48.5t-107.5 -16q-60 0 -106.5 17t-77.5 49.5t-46.5 78t-15.5 100.5v466h100v-449q0 -87 41 -130.5t118 -43.5z" />
    <glyph glyph-name="uring" unicode="&#x16f;" horiz-adv-x="586" 
d="M177 712q0 50 32.5 82t84.5 32q24 0 51 -10t45 -36.5t18 -61.5q0 -36 -18.5 -64.5t-46.5 -39.5t-52 -11t-51 10t-45 36.5t-18 62.5zM350 714q0 26 -15.5 42.5t-43.5 16.5q-26 0 -41 -15.5t-15 -41.5t15.5 -42.5t42.5 -16.5t42 15.5t15 41.5zM76 176v374h99v-358
q0 -60 27.5 -90.5t80.5 -30.5q40 0 70 18t42.5 45t13.5 50v366h99v-550h-81l-16 55h-4q-28 -34 -69.5 -50t-84.5 -16q-174 0 -177 187z" />
    <glyph glyph-name="Uhungarumlaut" unicode="&#x170;" horiz-adv-x="686" 
d="M347 78q150 0 150 162v461h101v-448q0 -66 -19 -116t-54 -82.5t-83.5 -48.5t-107.5 -16q-60 0 -106.5 17t-77.5 49.5t-46.5 78t-15.5 100.5v466h100v-449q0 -87 41 -130.5t118 -43.5zM579 881l-209 -114l-43 56l194 124zM352 902l-195 -136l-51 50l177 145z" />
    <glyph glyph-name="uhungarumlaut" unicode="&#x171;" horiz-adv-x="586" 
d="M76 176v374h99v-358q0 -60 27.5 -90.5t80.5 -30.5q40 0 70 18t42.5 45t13.5 50v366h99v-550h-81l-16 55h-4q-28 -34 -69.5 -50t-84.5 -16q-174 0 -177 187zM529 726l-209 -114l-43 56l194 124zM302 747l-195 -136l-51 50l177 145z" />
    <glyph glyph-name="Uogonek" unicode="&#x172;" horiz-adv-x="686" 
d="M347 78q150 0 150 162v461h101v-448q0 -96 -38.5 -157.5t-108.5 -86.5q-29 -16 -56.5 -38t-40.5 -44.5t-13 -40.5q0 -53 65 -53q30 0 52 12l17 -64q-13 -6 -37 -11t-51 -5q-65 0 -96 32t-31 78q0 62 57 115q-112 5 -170.5 70t-58.5 175v466h100v-449q0 -87 41 -130.5
t118 -43.5z" />
    <glyph glyph-name="uogonek" unicode="&#x173;" horiz-adv-x="586" 
d="M76 176v374h99v-358q0 -60 27.5 -90.5t80.5 -30.5q40 0 70 18t42.5 45t13.5 50v366h99v-550h-3q-29 -15 -57.5 -37.5t-42.5 -45t-14 -42.5q0 -53 65 -53q30 0 52 12l17 -64q-13 -6 -37 -11t-51 -5q-65 0 -96 32t-31 78q0 24 12 53t39 56t60 46l-10 36h-4
q-28 -34 -69.5 -50t-84.5 -16q-174 0 -177 187z" />
    <glyph glyph-name="Wcircumflex" unicode="&#x174;" horiz-adv-x="936" 
d="M467 959l197 -124l-37 -59l-160 92l-161 -92l-35 59zM258 104h4q2 21 41 181l100 416h134l104 -419q1 -2 2 -7t12.5 -52.5t18 -77.5t7.5 -40h4q1 19 42 195l100 401h101l-181 -701h-134l-100 408q-40 166 -43 192h-4q0 -2 -1.5 -10.5t-12 -58t-25.5 -109.5l-104 -422
h-135l-179 701h106l100 -390q42 -179 43 -207z" />
    <glyph glyph-name="wcircumflex" unicode="&#x175;" horiz-adv-x="777" 
d="M387 804l197 -124l-37 -59l-160 92l-161 -92l-35 59zM393 439h-4l-109 -439h-124l-146 550h101l72 -289q23 -97 37 -175h4q12 77 34 160l78 304h114l73 -302q26 -107 34 -162h4q19 97 40 178l72 286h92l-145 -550h-126z" />
    <glyph glyph-name="Ycircumflex" unicode="&#x176;" horiz-adv-x="566" 
d="M458 701h109l-234 -456v-245h-100v245l-234 456h114l170 -353h4zM282 959l197 -124l-37 -59l-160 92l-161 -92l-35 59z" />
    <glyph glyph-name="ycircumflex" unicode="&#x177;" horiz-adv-x="512" 
d="M30 -198l17 85q26 -11 54 -11q46 0 75 27.5t42 83.5l-201 563h109l81 -245q35 -107 58 -198h4q14 78 51 198l76 245h102l-191 -585q-20 -61 -48.5 -98.5t-68.5 -57t-93 -19.5q-39 0 -67 12zM255 804l197 -124l-37 -59l-160 92l-161 -92l-35 59z" />
    <glyph glyph-name="Ydieresis" unicode="&#x178;" horiz-adv-x="566" 
d="M567 701h-109l-171 -353h-4l-170 353h-114l234 -456v-245h100v245zM120 867q0 24 17 41t41 17q25 0 42 -17t17 -41t-17 -41t-42 -17q-24 0 -41 17t-17 41zM329 867q0 24 17 41t41 17q25 0 41.5 -16.5t16.5 -41.5q0 -24 -16.5 -41t-41.5 -17q-24 0 -41 17t-17 41z" />
    <glyph glyph-name="Zacute" unicode="&#x179;" horiz-adv-x="527" 
d="M396 904l-210 -127l-57 44l175 136zM150 93v-4h342v-89h-450l-16 86l342 522v4h-308v89h413l16 -86z" />
    <glyph glyph-name="zacute" unicode="&#x17a;" horiz-adv-x="466" 
d="M367 749l-210 -127l-57 44l175 136zM151 87v-4h272v-83h-372l-15 88l264 375v4h-245v83h341l18 -88z" />
    <glyph glyph-name="Zdotaccent" unicode="&#x17b;" horiz-adv-x="527" 
d="M150 93v-4h342v-89h-450l-16 86l342 522v4h-308v89h413l16 -86zM196 865q0 28 19.5 48t47.5 20q29 0 48.5 -20t19.5 -48t-19.5 -47.5t-48.5 -19.5q-28 0 -47.5 20t-19.5 47z" />
    <glyph glyph-name="zdotaccent" unicode="&#x17c;" horiz-adv-x="466" 
d="M151 87v-4h272v-83h-372l-15 88l264 375v4h-245v83h341l18 -88zM166 710q0 28 19.5 48t47.5 20q29 0 48.5 -20t19.5 -48t-19.5 -47.5t-48.5 -19.5q-28 0 -47.5 20t-19.5 47z" />
    <glyph glyph-name="Zcaron" unicode="&#x17d;" horiz-adv-x="527" 
d="M459 898l-197 -125l-196 125l35 59l161 -92l160 92zM150 93v-4h342v-89h-450l-16 86l342 522v4h-308v89h413l16 -86z" />
    <glyph glyph-name="zcaron" unicode="&#x17e;" horiz-adv-x="466" 
d="M430 743l-197 -125l-196 125l35 59l161 -92l160 92zM151 87v-4h272v-83h-372l-15 88l264 375v4h-245v83h341l18 -88z" />
    <glyph glyph-name="longs" unicode="&#x17f;" horiz-adv-x="368" 
d="M212 619v-619h-98v620q0 24 6.5 50t25 48.5t52 38t86.5 15.5q79 0 125 -23l-28 -80q-16 8 -44 13.5t-57 5.5q-36 0 -52 -17t-16 -52z" />
    <glyph glyph-name="florin" unicode="&#x192;" horiz-adv-x="524" 
d="M150 -12l43 337h-100v80h110l14 110q11 84 62.5 133t131.5 49q67 0 98 -18l-32 -85q-11 8 -32 13t-39 5q-80 0 -91 -98l-13 -109h128v-80h-138l-44 -338q-11 -83 -64 -132.5t-132 -49.5q-70 0 -99 19l33 86q12 -7 33 -13.5t38 -6.5q80 0 93 98z" />
    <glyph glyph-name="Scommaaccent" unicode="&#x218;" horiz-adv-x="544" 
d="M248 -330l-22 36q31 13 47 33t16 42q0 12 -8.5 27.5t-56.5 40.5v5q0 26 17 43t44 17q32 0 52.5 -24t20.5 -63q0 -27 -12 -58.5t-39.5 -58t-58.5 -40.5zM267 79q61 0 95 29t34 73q0 20 -9 38.5t-33.5 37.5t-100.5 53.5t-103.5 55t-43.5 39t-28 46t-12 66.5q0 40 14.5 71.5
t38 56.5t68 45.5t104.5 20.5q61 0 111 -19.5t79 -46.5l-62 -77q-61 53 -135 53q-53 0 -84.5 -27.5t-31.5 -69.5q0 -38 28.5 -65t99.5 -59.5t96 -47.5t43.5 -30.5t33 -35t22.5 -44.5t8 -55q0 -39 -16 -75t-47 -63.5t-77 -43t-103 -15.5q-38 0 -83 8.5t-83 28t-61 40.5l59 83
q85 -71 179 -71z" />
    <glyph glyph-name="scommaaccent" unicode="&#x219;" horiz-adv-x="480" 
d="M199 -330l-22 36q30 13 46.5 33.5t16.5 41.5q0 12 -8.5 27.5t-56.5 40.5v5q0 26 17 43t44 17q32 0 52.5 -24t20.5 -63q0 -27 -12 -58.5t-39.5 -58t-58.5 -40.5zM331 148q0 10 -4 21t-13.5 21t-27 19.5t-72 29.5t-77 34t-39 29t-28 40t-11.5 59q0 23 8.5 49t30.5 50
t60.5 41.5t93.5 17.5t100 -17.5t72 -46.5l-64 -66q-19 20 -49 33.5t-62 13.5q-21 0 -43 -7t-35.5 -24.5t-13.5 -38.5q0 -24 19 -43.5t80.5 -42t91 -38.5t46 -34t26.5 -40.5t10 -55.5q0 -45 -26 -82t-70.5 -58t-106.5 -21q-34 0 -74 8t-74.5 26t-54.5 39l60 72
q26 -26 65 -44.5t83 -18.5q48 0 73.5 21.5t25.5 53.5z" />
    <glyph glyph-name="uni021A" unicode="&#x21a;" horiz-adv-x="486" 
d="M202 -330l-22 36q31 13 47 33t16 42q0 18 -12.5 33t-52.5 35v5q0 25 17.5 42.5t43.5 17.5q32 0 52.5 -24t20.5 -63q0 -27 -12 -58.5t-39.5 -58t-58.5 -40.5zM193 0v614h-184v87h468v-87h-183v-614h-101z" />
    <glyph glyph-name="uni021B" unicode="&#x21b;" horiz-adv-x="387" 
d="M151 -330l-22 36q31 13 47 33t16 42q0 18 -12.5 33t-51.5 35v5q0 25 17 42.5t43 17.5q32 0 52.5 -24t20.5 -63q0 -27 -12 -58.5t-39.5 -58t-58.5 -40.5zM241 -5q-147 0 -147 160v317h-78v62l78 20l32 139h66v-143h147v-78h-147v-315q0 -39 19.5 -58.5t53.5 -19.5
q52 0 82 21l26 -77q-43 -28 -132 -28z" />
    <glyph glyph-name="uni0237" unicode="&#x237;" horiz-adv-x="264" 
d="M6 -235l-33 81q39 14 62.5 35.5t35.5 58.5t12 95v515h99v-518q0 -213 -176 -267z" />
    <glyph glyph-name="afii57929" unicode="&#x2bc;" horiz-adv-x="247" 
d="M61 440l-23 45q41 15 64 41t23 53q0 14 -8 29t-23 25t-46 27v6q0 30 20 51t52 21q38 0 62.5 -28.5t24.5 -74.5q0 -36 -16 -75.5t-53.5 -72.5t-76.5 -47z" />
    <glyph glyph-name="circumflex" unicode="&#x2c6;" horiz-adv-x="504" 
d="M251 804l197 -124l-37 -59l-160 92l-161 -92l-35 59z" />
    <glyph glyph-name="caron" unicode="&#x2c7;" horiz-adv-x="504" 
d="M448 743l-197 -125l-196 125l35 59l161 -92l160 92z" />
    <glyph glyph-name="breve" unicode="&#x2d8;" horiz-adv-x="504" 
d="M252 632q-65 0 -110 30t-69 76l65 39q6 -14 22 -32t40.5 -28.5t51.5 -10.5t51.5 10.5t40.5 28.5t22 32l65 -39q-24 -46 -69 -76t-110 -30z" />
    <glyph glyph-name="dotaccent" unicode="&#x2d9;" horiz-adv-x="504" 
d="M184 710q0 28 19.5 48t47.5 20q29 0 48.5 -20t19.5 -48t-19.5 -47.5t-48.5 -19.5q-28 0 -47.5 20t-19.5 47z" />
    <glyph glyph-name="ring" unicode="&#x2da;" horiz-adv-x="504" 
d="M136 712q0 50 32.5 82t84.5 32q24 0 51 -10t45 -36.5t18 -61.5q0 -36 -18.5 -64.5t-46.5 -39.5t-52 -11t-51 10t-45 36.5t-18 62.5zM309 714q0 26 -15.5 42.5t-43.5 16.5q-26 0 -41 -15.5t-15 -41.5t15.5 -42.5t42.5 -16.5t42 15.5t15 41.5z" />
    <glyph glyph-name="ogonek" unicode="&#x2db;" horiz-adv-x="504" 
d="M359 -219q-13 -6 -37 -11t-51 -5q-65 0 -96 32t-31 78q0 56 45 102.5t116 79.5l36 -45q-59 -31 -87.5 -64.5t-28.5 -61.5q0 -53 65 -53q30 0 52 12z" />
    <glyph glyph-name="tilde" unicode="&#x2dc;" horiz-adv-x="504" 
d="M177 758q29 0 77 -18t67 -18q41 0 67 34l39 -60q-6 -11 -21.5 -24t-36.5 -20t-40 -7q-25 0 -74.5 18.5t-68.5 18.5q-44 0 -71 -33l-39 60q17 23 44.5 36t56.5 13z" />
    <glyph glyph-name="hungarumlaut" unicode="&#x2dd;" horiz-adv-x="504" 
d="M488 726l-209 -114l-43 56l194 124zM261 747l-195 -136l-51 50l177 145z" />
    <glyph glyph-name="Delta" unicode="&#x394;" horiz-adv-x="663" 
d="M607 0h-550l-47 67l277 634h94l272 -634zM330 596l-65 -166l-98 -223l-59 -123h444l-57 123l-98 222l-63 167h-4z" />
    <glyph glyph-name="Omega" unicode="&#x3a9;" horiz-adv-x="766" 
d="M227 83q-68 31 -109.5 101.5t-41.5 178.5q0 82 22 147t63 109.5t99 67.5t128 23q71 0 128.5 -22t97.5 -65t61 -107.5t21 -146.5q0 -40 -8 -83t-27.5 -82t-48.5 -71t-68 -50v-4l166 9v-88h-273v101q154 46 154 259q0 49 -10 97t-38 89.5t-71 60t-89 18.5q-34 0 -63.5 -8.5
t-53.5 -26t-42 -44.5t-30.5 -70.5t-12.5 -109.5q0 -59 15 -116t52.5 -96t86.5 -53v-101h-273v88l165 -9v4z" />
    <glyph glyph-name="pi" unicode="&#x3c0;" horiz-adv-x="626" 
d="M167 -9l-82 48q32 46 39 85.5t7 95.5v249h-74v85h515v-85h-74v-469h-98v469h-171v-253q0 -151 -62 -225z" />
    <glyph glyph-name="Wgrave" unicode="&#x1e80;" horiz-adv-x="936" 
d="M258 104h4q2 21 41 181l100 416h134l104 -419q1 -2 2 -7t12.5 -52.5t18 -77.5t7.5 -40h4q1 19 42 195l100 401h101l-181 -701h-134l-100 408q-40 166 -43 192h-4q0 -2 -1.5 -10.5t-12 -58t-25.5 -109.5l-104 -422h-135l-179 701h106l100 -390q42 -179 43 -207zM544 777
l-210 127l92 53l175 -136z" />
    <glyph glyph-name="wgrave" unicode="&#x1e81;" horiz-adv-x="777" 
d="M393 439h-4l-109 -439h-124l-146 550h101l72 -289q23 -97 37 -175h4q12 77 34 160l78 304h114l73 -302q26 -107 34 -162h4q19 97 40 178l72 286h92l-145 -550h-126zM464 622l-210 127l92 53l175 -136z" />
    <glyph glyph-name="Wacute" unicode="&#x1e82;" horiz-adv-x="936" 
d="M601 904l-210 -127l-57 44l175 136zM258 104h4q2 21 41 181l100 416h134l104 -419q1 -2 2 -7t12.5 -52.5t18 -77.5t7.5 -40h4q1 19 42 195l100 401h101l-181 -701h-134l-100 408q-40 166 -43 192h-4q0 -2 -1.5 -10.5t-12 -58t-25.5 -109.5l-104 -422h-135l-179 701h106
l100 -390q42 -179 43 -207z" />
    <glyph glyph-name="wacute" unicode="&#x1e83;" horiz-adv-x="777" 
d="M521 749l-210 -127l-57 44l175 136zM393 439h-4l-109 -439h-124l-146 550h101l72 -289q23 -97 37 -175h4q12 77 34 160l78 304h114l73 -302q26 -107 34 -162h4q19 97 40 178l72 286h92l-145 -550h-126z" />
    <glyph glyph-name="Wdieresis" unicode="&#x1e84;" horiz-adv-x="936" 
d="M305 867q0 24 17 41t41 17q25 0 42 -17t17 -41t-17 -41t-42 -17q-24 0 -41 17t-17 41zM514 867q0 24 17 41t41 17q25 0 41.5 -16.5t16.5 -41.5q0 -24 -16.5 -41t-41.5 -17q-24 0 -41 17t-17 41zM258 104h4q2 21 41 181l100 416h134l104 -419q1 -2 2 -7t12.5 -52.5
t18 -77.5t7.5 -40h4q1 19 42 195l100 401h101l-181 -701h-134l-100 408q-40 166 -43 192h-4q0 -2 -1.5 -10.5t-12 -58t-25.5 -109.5l-104 -422h-135l-179 701h106l100 -390q42 -179 43 -207z" />
    <glyph glyph-name="wdieresis" unicode="&#x1e85;" horiz-adv-x="777" 
d="M225 712q0 24 17 41t41 17q25 0 42 -17t17 -41t-17 -41t-42 -17q-24 0 -41 17t-17 41zM434 712q0 24 17 41t41 17q25 0 41.5 -16.5t16.5 -41.5q0 -24 -16.5 -41t-41.5 -17q-24 0 -41 17t-17 41zM393 439h-4l-109 -439h-124l-146 550h101l72 -289q23 -97 37 -175h4
q12 77 34 160l78 304h114l73 -302q26 -107 34 -162h4q19 97 40 178l72 286h92l-145 -550h-126z" />
    <glyph glyph-name="Ygrave" unicode="&#x1ef2;" horiz-adv-x="566" 
d="M458 701h109l-234 -456v-245h-100v245l-234 456h114l170 -353h4zM359 777l-210 127l92 53l175 -136z" />
    <glyph glyph-name="ygrave" unicode="&#x1ef3;" horiz-adv-x="512" 
d="M30 -198l17 85q26 -11 54 -11q46 0 75 27.5t42 83.5l-201 563h109l81 -245q35 -107 58 -198h4q14 78 51 198l76 245h102l-191 -585q-20 -61 -48.5 -98.5t-68.5 -57t-93 -19.5q-39 0 -67 12zM332 622l-210 127l92 53l175 -136z" />
    <glyph glyph-name="endash" unicode="&#x2013;" horiz-adv-x="433" 
d="M432 262h-430v85h430v-85z" />
    <glyph glyph-name="emdash" unicode="&#x2014;" horiz-adv-x="701" 
d="M699 262h-697v85h697v-85z" />
    <glyph glyph-name="quoteleft" unicode="&#x2018;" horiz-adv-x="247" 
d="M187 738l23 -44q-41 -15 -64 -41t-23 -53q0 -22 14.5 -39.5t62.5 -42.5v-5q0 -30 -20.5 -51.5t-52.5 -21.5q-38 0 -62.5 29t-24.5 75q0 36 16 75.5t54 72.5t77 46z" />
    <glyph glyph-name="quoteright" unicode="&#x2019;" horiz-adv-x="247" 
d="M61 440l-23 45q41 15 64 41t23 53q0 14 -8 29t-23 25t-46 27v6q0 30 20 51t52 21q38 0 62.5 -28.5t24.5 -74.5q0 -36 -16 -75.5t-53.5 -72.5t-76.5 -47z" />
    <glyph glyph-name="quotesinglbase" unicode="&#x201a;" horiz-adv-x="257" 
d="M68 -152l-32 49q38 16 60.5 39.5t22.5 50.5q0 19 -11.5 37t-48.5 35v9q0 28 19.5 48t49.5 20q36 0 59 -27t23 -71q0 -65 -43.5 -118t-98.5 -72z" />
    <glyph glyph-name="quotedblleft" unicode="&#x201c;" horiz-adv-x="466" 
d="M187 738l23 -44q-41 -15 -64 -41t-23 -53q0 -22 14.5 -39.5t62.5 -42.5v-5q0 -30 -20.5 -51.5t-52.5 -21.5q-38 0 -62.5 29t-24.5 75q0 36 16 75.5t54 72.5t77 46zM405 738l23 -44q-41 -15 -64 -41t-23 -53q0 -14 9.5 -32.5t67.5 -49.5v-5q0 -30 -20 -51.5t-52 -21.5
q-18 0 -38.5 9.5t-34.5 35t-14 59.5q0 45 19 83t53.5 68t73.5 43z" />
    <glyph glyph-name="quotedblright" unicode="&#x201d;" horiz-adv-x="466" 
d="M279 440l-23 45q41 15 64 41t23 53q0 14 -8 29t-23 25t-46 27v6q0 30 20.5 51t51.5 21q39 0 63.5 -28.5t24.5 -74.5q0 -36 -16 -75.5t-54 -72.5t-77 -47zM61 440l-23 45q41 15 64 41t23 53q0 14 -8 29t-23 25t-46 27v6q0 30 20 51t52 21q38 0 62.5 -28.5t24.5 -74.5
q0 -36 -16 -75.5t-53.5 -72.5t-76.5 -47z" />
    <glyph glyph-name="quotedblbase" unicode="&#x201e;" horiz-adv-x="475" 
d="M66 -157l-23 45q41 15 64 41t23 53q0 14 -8 29t-23 25t-46 27v6q0 30 20 51t52 21q38 0 62.5 -28.5t24.5 -74.5q0 -36 -16 -75.5t-53.5 -72.5t-76.5 -47zM284 -157l-23 45q41 15 64 41t23 53q0 14 -8 29t-23 25t-46 27v6q0 30 20.5 51t51.5 21q39 0 63.5 -28.5
t24.5 -74.5q0 -36 -16 -75.5t-54 -72.5t-77 -47z" />
    <glyph glyph-name="dagger" unicode="&#x2020;" horiz-adv-x="533" 
d="M214 -148l11 614l-180 -12v100l180 -12l-14 214h110l-14 -214l181 12v-100l-180 12l12 -614h-106z" />
    <glyph glyph-name="daggerdbl" unicode="&#x2021;" horiz-adv-x="534" 
d="M223 464l-178 -10v100l180 -12l-13 214h109l-14 -214l182 12v-100l-179 11l4 -161l-3 -161l177 11v-100l-180 11l14 -213h-110l14 213l-181 -11v100l178 -12l-3 162z" />
    <glyph glyph-name="bullet" unicode="&#x2022;" horiz-adv-x="458" 
d="M96 353q0 40 21.5 72.5t51.5 46t59 13.5q30 0 60.5 -13.5t52 -46t21.5 -72.5q0 -26 -13 -57t-46 -53t-74 -22q-45 0 -77 22.5t-44 53t-12 56.5z" />
    <glyph glyph-name="ellipsis" unicode="&#x2026;" horiz-adv-x="815" 
d="M50 68q0 31 20.5 52.5t50.5 21.5q31 0 52 -21.5t21 -52.5q0 -29 -21 -50t-52 -21q-29 0 -50 21t-21 50zM335 68q0 31 21 52.5t50 21.5q31 0 52.5 -21.5t21.5 -52.5q0 -29 -21.5 -50t-52.5 -21q-29 0 -50 21t-21 50zM621 68q0 31 21 52.5t50 21.5q31 0 52.5 -21.5
t21.5 -52.5q0 -29 -21.5 -50t-52.5 -21q-29 0 -50 21t-21 50z" />
    <glyph glyph-name="perthousand" unicode="&#x2030;" horiz-adv-x="1224" 
d="M797 184q0 -95 -43 -144.5t-115 -49.5q-73 0 -114 47.5t-41 143.5q0 92 43.5 141t115.5 49t113 -47t41 -140zM642 55q38 0 57 30.5t19 94.5q0 127 -80 127q-74 0 -74 -125q0 -64 20.5 -95.5t57.5 -31.5zM1178 184q0 -95 -43.5 -144.5t-115.5 -49.5q-73 0 -114 47.5
t-41 143.5q0 92 43.5 141t116.5 49q72 0 113 -47t41 -140zM1022 55q39 0 57.5 30t18.5 95q0 127 -80 127q-74 0 -74 -125q0 -64 21 -95.5t57 -31.5zM195 23l521 609l-53 46l-520 -609zM360 516q0 -95 -43 -144.5t-115 -49.5q-73 0 -114 47.5t-41 143.5q0 92 43.5 141
t115.5 49t113 -47t41 -140zM205 387q38 0 57 30.5t19 94.5q0 127 -80 127q-74 0 -74 -125q0 -64 20.5 -95.5t57.5 -31.5z" />
    <glyph glyph-name="guilsinglleft" unicode="&#x2039;" horiz-adv-x="314" 
d="M44 274l167 225l64 -50l-125 -175l125 -175l-64 -49z" />
    <glyph glyph-name="guilsinglright" unicode="&#x203a;" horiz-adv-x="314" 
d="M108 499l167 -225l-167 -224l-64 49l125 175l-125 175z" />
    <glyph glyph-name="fraction" unicode="&#x2044;" horiz-adv-x="179" 
d="M347 664l-460 -662l-54 33l460 664z" />
    <glyph glyph-name="uni2074" unicode="&#x2074;" horiz-adv-x="362" 
d="M218 413h-185l-16 57l186 267h91v-262h65v-62h-65v-91h-76v91zM224 667l-1 -1l-41 -69l-82 -122h118v105z" />
    <glyph glyph-name="Euro" unicode="&#x20ac;" horiz-adv-x="603" 
d="M450 456l-21 -75h-218v-33l1 -38h200l-18 -75h-173q28 -156 168 -156q23 0 54.5 7.5t71.5 43.5l55 -73q-64 -66 -192 -66q-221 0 -257 244h-83v75h76v71h-76v75h85q11 57 33 103t55.5 78t79 48.5t100.5 16.5q123 0 187 -64l-65 -78q-32 32 -63.5 43t-67.5 11
q-64 0 -106.5 -40t-57.5 -118h232z" />
    <glyph glyph-name="trademark" unicode="&#x2122;" horiz-adv-x="617" 
d="M515 642h-4l-68 -194h-49l-68 196h-4l2 -88v-132h-55v277h85l66 -192l63 192h85v-277h-55v128zM7 654v47h218v-47h-78v-229h-59v229h-81z" />
    <glyph glyph-name="estimated" unicode="&#x212e;" horiz-adv-x="677" 
d="M558 150l47 -28q-37 -63 -102 -97.5t-149 -34.5q-65 0 -119.5 21t-93 59t-59 91t-20.5 114q0 60 20.5 112.5t58.5 91.5t92 60.5t118 21.5q123 0 196 -74.5t73 -197.5l-1 -30h-407v-171q27 -20 65.5 -31.5t78.5 -11.5q67 0 120.5 28t81.5 77zM481 311v158q-22 17 -56 27.5
t-72 10.5q-41 0 -78.5 -11.5t-62.5 -31.5v-153h269z" />
    <glyph glyph-name="partialdiff" unicode="&#x2202;" horiz-adv-x="541" 
d="M105 686v8h144q65 -36 119 -101t85.5 -146.5t31.5 -173.5q0 -132 -59 -206t-164 -74q-101 0 -156 56t-55 166q0 39 11 79.5t36.5 74.5t65.5 56.5t92 22.5q70 0 106 -25l2 2q-16 44 -50.5 91.5t-91.5 92.5t-117 77zM393 256q0 49 -8 78q-18 14 -49.5 23.5t-64.5 9.5
q-123 0 -123 -144q0 -70 33 -108.5t88 -38.5q124 0 124 180z" />
    <glyph glyph-name="product" unicode="&#x220f;" horiz-adv-x="695" 
d="M165 -161l-83 48q26 37 36 73.5t10 110.5v630h421v-854h-98v769h-224v-549q0 -156 -62 -228z" />
    <glyph glyph-name="summation" unicode="&#x2211;" horiz-adv-x="526" 
d="M209 7l-51 -92v-4l107 4h215v-84h-396l-34 65l198 370l-198 371l34 64h396v-84h-218l-104 4v-4l52 -93l138 -258z" />
    <glyph glyph-name="minus" unicode="&#x2212;" 
d="M31 301v83h474v-83h-474z" />
    <glyph glyph-name="uni2215" unicode="&#x2215;" horiz-adv-x="179" 
d="M347 664l-460 -662l-54 33l460 664z" />
    <glyph glyph-name="uni2219" unicode="&#x2219;" horiz-adv-x="253" 
d="M58 348q0 31 20.5 52.5t50.5 21.5q31 0 52 -21.5t21 -52.5q0 -29 -21 -50t-52 -21q-29 0 -50 21t-21 50z" />
    <glyph glyph-name="radical" unicode="&#x221a;" horiz-adv-x="669" 
d="M342 -68h4l73 275l209 742h85l-312 -1109h-111l-203 552h-116l19 76h162l111 -302z" />
    <glyph glyph-name="infinity" unicode="&#x221e;" horiz-adv-x="844" 
d="M138 346q0 -41 26 -68t70 -27q31 0 64 21t72 74q-44 53 -75.5 72t-60.5 19q-45 0 -70.5 -25.5t-25.5 -65.5zM420 286q-29 -35 -59.5 -60.5t-65 -37.5t-67.5 -12q-84 0 -129.5 44.5t-45.5 121.5q0 76 49 123t131 47q43 0 89.5 -22t99.5 -87q50 64 98 87.5t95 23.5
q82 0 128.5 -45t46.5 -120t-49 -123t-130 -48q-45 0 -91 21.5t-100 86.5zM704 346q0 28 -14.5 51t-37 32t-43.5 9q-32 0 -65 -21t-70 -74q42 -53 73.5 -71t61.5 -18q46 0 70.5 25t24.5 67z" />
    <glyph glyph-name="integral" unicode="&#x222b;" horiz-adv-x="421" 
d="M303 727l-94 -728q-5 -34 -17.5 -68t-36 -60.5t-59.5 -42.5t-87 -16q-65 0 -109 22l37 78q29 -15 69 -15q92 0 105 104l94 727q12 93 65 140.5t135 47.5q61 0 109 -22l-37 -78q-30 14 -69 14q-92 0 -105 -103z" />
    <glyph glyph-name="approxequal" unicode="&#x2248;" horiz-adv-x="550" 
d="M452 515l78 -14q-8 -46 -30.5 -78t-53 -43t-61.5 -11q-44 0 -118 30q-68 29 -100 29q-27 0 -43 -15.5t-27 -48.5l-78 15q12 62 50.5 97t101.5 35q39 0 111 -31q68 -29 100 -29q28 0 44 14t26 50zM452 317l78 -13q-12 -63 -48 -98t-97 -35q-42 0 -118 31q-68 29 -100 29
q-27 0 -43 -16t-27 -49l-78 16q12 61 51 96t101 35q39 0 111 -31q70 -28 100 -28q28 0 44 14t26 49z" />
    <glyph glyph-name="notequal" unicode="&#x2260;" 
d="M31 413v84h261l41 106h77l-41 -106h136v-84h-168l-54 -141h222v-84h-254l-42 -109h-77l42 109h-143v84h175l54 141h-229z" />
    <glyph glyph-name="lessequal" unicode="&#x2264;" 
d="M139 364v-4l146 -57l220 -95v-100l-474 213v84l474 213v-100l-221 -97zM505 15v83h-474v-83h474z" />
    <glyph glyph-name="greaterequal" unicode="&#x2265;" 
d="M397 360v4l-145 57l-221 97v100l474 -213v-84l-474 -213v100l221 95zM31 15v83h474v-83h-474z" />
    <glyph glyph-name="lozenge" unicode="&#x25ca;" horiz-adv-x="560" 
d="M222 0l-201 350l203 351h104l202 -351l-204 -350h-104zM331 187l93 162l-99 174l-49 91h-2l-51 -92l-96 -171l94 -165l53 -100h2z" />
    <glyph glyph-name="glyph228" horiz-adv-x="300" 
d="M100 0v701h101v-701h-101zM306 815h-309v78h309v-78z" />
    <glyph glyph-name="glyph231" horiz-adv-x="291" 
d="M98 0v550h99v-550h-99zM146 632q-65 0 -110 30t-69 76l65 39q6 -14 22 -32t40.5 -28.5t51.5 -10.5t51.5 10.5t40.5 28.5t22 32l65 -39q-24 -46 -69 -76t-110 -30z" />
    </font>
</defs>
</svg>
